Mirza-SemiBold.ufo
<glyph name="uni0604" format="1">
  <advance width="600"/>
  <unicode hex="0604"/>
  <outline>
    <contour>
      <point x="1194" y="205"/>
      <point x="1178" y="184"/>
      <point x="1161" y="157" type="curve"/>
      <point x="1209" y="91" type="line"/>
      <point x="1195" y="63"/>
      <point x="1182" y="53"/>
      <point x="1151" y="53" type="curve" smooth="yes"/>
      <point x="1135" y="53"/>
      <point x="1113" y="56"/>
      <point x="1100" y="70" type="curve"/>
      <point x="1087" y="83"/>
      <point x="1084" y="104"/>
      <point x="1085" y="123" type="curve"/>
      <point x="1086" y="132"/>
      <point x="1087" y="146"/>
      <point x="1088" y="155" type="curve"/>
      <point x="1047" y="138" type="line"/>
      <point x="1047" y="130"/>
      <point x="1046" y="122"/>
      <point x="1044" y="114" type="curve" smooth="yes"/>
      <point x="1037" y="82"/>
      <point x="1018" y="52"/>
      <point x="975" y="52" type="curve" smooth="yes"/>
      <point x="937" y="52"/>
      <point x="921" y="76"/>
      <point x="903" y="102" type="curve" smooth="yes"/>
      <point x="891" y="119"/>
      <point x="879" y="135"/>
      <point x="847" y="135" type="curve" smooth="yes"/>
      <point x="827" y="135"/>
      <point x="807" y="129"/>
      <point x="787" y="116" type="curve" smooth="yes"/>
      <point x="767" y="104"/>
      <point x="747" y="85"/>
      <point x="732" y="64" type="curve" smooth="yes"/>
      <point x="718" y="46"/>
      <point x="706" y="21"/>
      <point x="701" y="4" type="curve" smooth="yes"/>
      <point x="696" y="-14"/>
      <point x="693" y="-36"/>
      <point x="695" y="-58" type="curve"/>
      <point x="682" y="-62"/>
      <point x="642" y="-59"/>
      <point x="610" y="-58" type="curve"/>
      <point x="-41" y="-58" type="line"/>
      <point x="-66" y="-58"/>
      <point x="-84" y="-56"/>
      <point x="-105" y="-51" type="curve"/>
      <point x="-130" y="-102"/>
      <point x="-138" y="-133"/>
      <point x="-145" y="-188" type="curve"/>
      <point x="-119" y="-184"/>
      <point x="-99" y="-183"/>
      <point x="-71" y="-183" type="curve"/>
      <point x="606" y="-183" type="line" smooth="yes"/>
      <point x="663" y="-183"/>
      <point x="687" y="-173"/>
      <point x="729" y="-173" type="curve" smooth="yes"/>
      <point x="760" y="-173"/>
      <point x="793" y="-181"/>
      <point x="836" y="-205" type="curve"/>
      <point x="854" y="-156"/>
      <point x="859" y="-122"/>
      <point x="858" y="-80" type="curve"/>
      <point x="811" y="-68"/>
      <point x="755" y="-52"/>
      <point x="755" y="-20" type="curve" smooth="yes"/>
      <point x="755" y="4"/>
      <point x="786" y="44"/>
      <point x="834" y="44" type="curve" smooth="yes"/>
      <point x="873" y="44"/>
      <point x="888" y="16"/>
      <point x="903" y="-11" type="curve" smooth="yes"/>
      <point x="917" y="-36"/>
      <point x="936" y="-65"/>
      <point x="982" y="-65" type="curve" smooth="yes"/>
      <point x="1033" y="-65"/>
      <point x="1053" y="-29"/>
      <point x="1061" y="-8" type="curve"/>
      <point x="1067" y="-27"/>
      <point x="1094" y="-59"/>
      <point x="1146" y="-59" type="curve" smooth="yes"/>
      <point x="1187" y="-59"/>
      <point x="1219" y="-38"/>
      <point x="1240" y="-1" type="curve" smooth="yes"/>
      <point x="1262" y="36"/>
      <point x="1266" y="78"/>
      <point x="1266" y="98" type="curve" smooth="yes"/>
      <point x="1266" y="144"/>
      <point x="1247" y="193"/>
      <point x="1215" y="227" type="curve"/>
    </contour>
  </outline>
</glyph>
<glyph name="uni061B" format="1">
  <advance width="210"/>
  <unicode hex="061B"/>
  <outline>
    <contour>
      <point x="73" y="124"/>
      <point x="46" y="97"/>
      <point x="20" y="65" type="curve"/>
      <point x="52" y="39"/>
      <point x="79" y="12"/>
      <point x="105" y="-20" type="curve"/>
      <point x="137" y="6"/>
      <point x="164" y="33"/>
      <point x="190" y="65" type="curve"/>
      <point x="158" y="91"/>
      <point x="131" y="118"/>
      <point x="105" y="150" type="curve"/>
    </contour>
    <contour>
      <point x="87" y="405"/>
      <point x="42" y="326"/>
      <point x="34" y="239" type="curve"/>
      <point x="64" y="209" type="line"/>
      <point x="99" y="209"/>
      <point x="142" y="221"/>
      <point x="172" y="240" type="curve"/>
      <point x="161" y="266"/>
      <point x="155" y="298"/>
      <point x="155" y="334" type="curve" smooth="yes"/>
      <point x="155" y="373"/>
      <point x="167" y="412"/>
      <point x="190" y="439" type="curve"/>
      <point x="164" y="467" type="line"/>
    </contour>
  </outline>
</glyph>
<glyph name="uni0627" format="1">
  <advance width="195"/>
  <unicode hex="0627"/>
  <outline>
    <contour>
      <point x="37" y="497"/>
      <point x="38" y="439"/>
      <point x="48" y="341" type="curve" smooth="yes"/>
      <point x="55" y="276"/>
      <point x="60" y="234"/>
      <point x="65" y="201" type="curve" smooth="yes"/>
      <point x="69" y="170"/>
      <point x="73" y="154"/>
      <point x="75" y="128" type="curve" smooth="yes"/>
      <point x="80" y="70"/>
      <point x="77" y="9"/>
      <point x="76" y="0" type="curve"/>
      <point x="114" y="0" type="line"/>
      <point x="117" y="8"/>
      <point x="126" y="32"/>
      <point x="133" y="65" type="curve" smooth="yes"/>
      <point x="148" y="141"/>
      <point x="156" y="242"/>
      <point x="138" y="418" type="curve" smooth="yes"/>
      <point x="137" y="427"/>
      <point x="134" y="458"/>
      <point x="134" y="468" type="curve" smooth="yes"/>
      <point x="130" y="510"/>
      <point x="128" y="578"/>
      <point x="128" y="595" type="curve" smooth="yes"/>
      <point x="98" y="595" type="line"/>
      <point x="83" y="579"/>
      <point x="59" y="544"/>
      <point x="37" y="501" type="curve"/>
    </contour>
    <contour>
      <point x="103" y="615" type="move" name="top"/>
    </contour>
    <contour>
      <point x="95" y="-31" type="move" name="bottom"/>
    </contour>
  </outline>
</glyph>
<glyph name="uni064E" format="1">
  <advance width="0"/>
  <unicode hex="064E"/>
  <outline>
    <contour>
      <point x="45" y="791"/>
      <point x="-38" y="759"/>
      <point x="-80" y="736" type="curve"/>
      <point x="-84" y="727"/>
      <point x="-88" y="712"/>
      <point x="-91" y="699" type="curve"/>
      <point x="-64" y="710"/>
      <point x="35" y="753"/>
      <point x="79" y="767" type="curve"/>
      <point x="85" y="781"/>
      <point x="87" y="789"/>
      <point x="90" y="803" type="curve"/>
    </contour>
    <contour>
      <point x="-1" y="806" type="move" name="top"/>
    </contour>
    <contour>
      <point x="-1" y="669" type="move" name="_top"/>
    </contour>
  </outline>
</glyph>
<glyph name="uni065B" format="1">
  <advance width="0"/>
  <unicode hex="065B"/>
  <outline>
    <contour>
      <point x="-65" y="724"/>
      <point x="-60" y="714"/>
      <point x="-53" y="702" type="curve"/>
      <point x="-41" y="718"/>
      <point x="-31" y="733"/>
      <point x="-23" y="747" type="curve" smooth="yes"/>
      <point x="-17" y="756"/>
      <point x="-12" y="765"/>
      <point x="-8" y="772" type="curve" smooth="yes"/>
      <point x="-3" y="783"/>
      <point x="-1" y="793"/>
      <point x="2" y="799" type="curve"/>
      <point x="4" y="792"/>
      <point x="8" y="783"/>
      <point x="12" y="772" type="curve" smooth="yes"/>
      <point x="16" y="765"/>
      <point x="20" y="756"/>
      <point x="25" y="748" type="curve" smooth="yes"/>
      <point x="33" y="733"/>
      <point x="44" y="718"/>
      <point x="57" y="702" type="curve"/>
      <point x="64" y="713"/>
      <point x="68" y="722"/>
      <point x="71" y="734" type="curve"/>
      <point x="50" y="760"/>
      <point x="32" y="788"/>
      <point x="22" y="814" type="curve" smooth="yes"/>
      <point x="16" y="832"/>
      <point x="13" y="845"/>
      <point x="12" y="863" type="curve"/>
      <point x="-8" y="863" type="line"/>
      <point x="-9" y="846"/>
      <point x="-12" y="831"/>
      <point x="-17" y="816" type="curve" smooth="yes"/>
      <point x="-28" y="789"/>
      <point x="-44" y="761"/>
      <point x="-68" y="734" type="curve"/>
    </contour>
    <contour>
      <point x="2" y="863" type="move" name="top"/>
    </contour>
    <contour>
      <point x="2" y="682" type="move" name="_top"/>
    </contour>
  </outline>
</glyph>
<glyph name="uni065F" format="1">
  <advance width="0"/>
  <unicode hex="065F"/>
  <outline>
    <contour>
      <point x="72" y="-280"/>
      <point x="56" y="-281"/>
      <point x="43" y="-281" type="curve" smooth="yes"/>
      <point x="12" y="-281"/>
      <point x="-7" y="-272"/>
      <point x="-15" y="-254" type="curve"/>
      <point x="-5" y="-247"/>
      <point x="12" y="-238"/>
      <point x="36" y="-238" type="curve" smooth="yes"/>
      <point x="49" y="-238"/>
      <point x="58" y="-242"/>
      <point x="67" y="-246" type="curve"/>
      <point x="78" y="-233" type="line"/>
      <point x="73" y="-221"/>
      <point x="64" y="-204"/>
      <point x="34" y="-204" type="curve" smooth="yes"/>
      <point x="15" y="-204"/>
      <point x="-10" y="-217"/>
      <point x="-27" y="-230" type="curve" smooth="yes"/>
      <point x="-41" y="-241"/>
      <point x="-52" y="-254"/>
      <point x="-52" y="-263" type="curve" smooth="yes"/>
      <point x="-52" y="-274"/>
      <point x="-45" y="-287"/>
      <point x="-30" y="-299" type="curve" smooth="yes"/>
      <point x="-19" y="-307"/>
      <point x="-3" y="-313"/>
      <point x="17" y="-313" type="curve"/>
      <point x="12" y="-318"/>
      <point x="2" y="-331"/>
      <point x="-10" y="-331" type="curve" smooth="yes"/>
      <point x="-25" y="-331"/>
      <point x="-36" y="-323"/>
      <point x="-50" y="-323" type="curve" smooth="yes"/>
      <point x="-72" y="-323"/>
      <point x="-88" y="-332"/>
      <point x="-105" y="-350" type="curve"/>
      <point x="-95" y="-370" type="line"/>
      <point x="-87" y="-363"/>
      <point x="-78" y="-357"/>
      <point x="-70" y="-357" type="curve" smooth="yes"/>
      <point x="-55" y="-357"/>
      <point x="-47" y="-372"/>
      <point x="-25" y="-372" type="curve" smooth="yes"/>
      <point x="-1" y="-372"/>
      <point x="13" y="-363"/>
      <point x="27" y="-350" type="curve" smooth="yes"/>
      <point x="45" y="-333"/>
      <point x="59" y="-320"/>
      <point x="83" y="-312" type="curve"/>
      <point x="92" y="-297"/>
      <point x="98" y="-288"/>
      <point x="103" y="-274" type="curve"/>
    </contour>
    <contour>
      <point x="-1" y="-184" type="move" name="_bottom"/>
    </contour>
    <contour>
      <point x="-1" y="-372" type="move" name="bottom"/>
    </contour>
  </outline>
</glyph>
<glyph name="uni066E" format="1">
  <advance width="850"/>
  <unicode hex="066E"/>
  <outline>
    <contour>
      <point x="708" y="320"/>
      <point x="682" y="279"/>
      <point x="670" y="250" type="curve"/>
      <point x="694" y="226"/>
      <point x="711" y="205"/>
      <point x="728" y="177" type="curve"/>
      <point x="710" y="169"/>
      <point x="665" y="146"/>
      <point x="591" y="134" type="curve" smooth="yes"/>
      <point x="542" y="125"/>
      <point x="478" y="120"/>
      <point x="411" y="120" type="curve" smooth="yes"/>
      <point x="351" y="120"/>
      <point x="284" y="124"/>
      <point x="244" y="131" type="curve" smooth="yes"/>
      <point x="123" y="149"/>
      <point x="110" y="209"/>
      <point x="107" y="247" type="curve"/>
      <point x="71" y="257" type="line"/>
      <point x="63" y="208"/>
      <point x="53" y="119"/>
      <point x="108" y="61" type="curve" smooth="yes"/>
      <point x="139" y="28"/>
      <point x="179" y="13"/>
      <point x="240" y="2" type="curve" smooth="yes"/>
      <point x="275" y="-4"/>
      <point x="321" y="-10"/>
      <point x="386" y="-10" type="curve" smooth="yes"/>
      <point x="497" y="-10"/>
      <point x="594" y="8"/>
      <point x="665" y="37" type="curve" smooth="yes"/>
      <point x="759" y="76"/>
      <point x="796" y="142"/>
      <point x="797" y="203" type="curve" smooth="yes"/>
      <point x="797" y="252"/>
      <point x="774" y="301"/>
      <point x="729" y="341" type="curve"/>
    </contour>
    <contour>
      <point x="416" y="217" type="move" name="top"/>
    </contour>
    <contour>
      <point x="409" y="-41" type="move" name="bottom"/>
    </contour>
  </outline>
</glyph>
<glyph name="uni06D2" format="1">
  <advance width="972"/>
  <unicode hex="06D2"/>
  <outline>
    <contour>
      <point x="481" y="308"/>
      <point x="486" y="368"/>
      <point x="460" y="408" type="curve" smooth="yes"/>
      <point x="448" y="426"/>
      <point x="430" y="434"/>
      <point x="414" y="434" type="curve" smooth="yes"/>
      <point x="387" y="434"/>
      <point x="369" y="411"/>
      <point x="349" y="383" type="curve" smooth="yes"/>
      <point x="320" y="342"/>
      <point x="311" y="329"/>
      <point x="227" y="289" type="curve" smooth="yes"/>
      <point x="194" y="274"/>
      <point x="153" y="255"/>
      <point x="120" y="227" type="curve" smooth="yes"/>
      <point x="86" y="199"/>
      <point x="63" y="164"/>
      <point x="63" y="119" type="curve" smooth="yes"/>
      <point x="63" y="82"/>
      <point x="78" y="53"/>
      <point x="109" y="33" type="curve" smooth="yes"/>
      <point x="143" y="11"/>
      <point x="197" y="0"/>
      <point x="272" y="0" type="curve" smooth="yes"/>
      <point x="839" y="0" type="line"/>
      <point x="875" y="44"/>
      <point x="897" y="79"/>
      <point x="918" y="126" type="curve"/>
      <point x="277" y="126" type="line" smooth="yes"/>
      <point x="182" y="126"/>
      <point x="155" y="132"/>
      <point x="155" y="158" type="curve" smooth="yes"/>
      <point x="155" y="171"/>
      <point x="165" y="181"/>
      <point x="178" y="187" type="curve"/>
      <point x="276" y="223"/>
      <point x="295" y="247"/>
      <point x="336" y="288" type="curve" smooth="yes"/>
      <point x="346" y="298"/>
      <point x="373" y="338"/>
      <point x="402" y="338" type="curve" smooth="yes"/>
      <point x="438" y="338"/>
      <point x="439" y="287"/>
      <point x="430" y="235" type="curve"/>
      <point x="469" y="249" type="line"/>
    </contour>
    <contour>
      <point x="414" y="464" type="move" name="top"/>
    </contour>
    <contour>
      <point x="436" y="-28" type="move" name="bottom"/>
    </contour>
  </outline>
</glyph>
<glyph name="uni06DA" format="1">
  <advance width="0"/>
  <unicode hex="06DA"/>
  <outline>
    <contour>
      <point x="-78" y="768"/>
      <point x="-72" y="744"/>
      <point x="-57" y="728" type="curve" smooth="yes"/>
      <point x="-42" y="712"/>
      <point x="-21" y="702"/>
      <point x="3" y="702" type="curve" smooth="yes"/>
      <point x="21" y="702"/>
      <point x="30" y="707"/>
      <point x="38" y="712" type="curve" smooth="yes"/>
      <point x="47" y="716"/>
      <point x="58" y="721"/>
      <point x="72" y="721" type="curve"/>
      <point x="77" y="734" type="line"/>
      <point x="63" y="737"/>
      <point x="53" y="737"/>
      <point x="43" y="738" type="curve"/>
      <point x="37" y="738"/>
      <point x="21" y="740"/>
      <point x="10" y="741" type="curve" smooth="yes"/>
      <point x="-11" y="745"/>
      <point x="-27" y="752"/>
      <point x="-36" y="763" type="curve"/>
      <point x="-47" y="775"/>
      <point x="-51" y="791"/>
      <point x="-50" y="808" type="curve" smooth="yes"/>
      <point x="-48" y="833"/>
      <point x="-33" y="851"/>
      <point x="-14" y="864" type="curve" smooth="yes"/>
      <point x="10" y="880"/>
      <point x="44" y="885"/>
      <point x="78" y="881" type="curve"/>
      <point x="83" y="894"/>
      <point x="86" y="906"/>
      <point x="90" y="917" type="curve"/>
      <point x="86" y="917"/>
      <point x="79" y="917"/>
      <point x="74" y="917" type="curve" smooth="yes"/>
      <point x="35" y="917"/>
      <point x="10" y="925"/>
      <point x="-1" y="928" type="curve" smooth="yes"/>
      <point x="-13" y="933"/>
      <point x="-21" y="934"/>
      <point x="-27" y="934" type="curve" smooth="yes"/>
      <point x="-41" y="934"/>
      <point x="-50" y="929"/>
      <point x="-58" y="914" type="curve" smooth="yes"/>
      <point x="-63" y="908"/>
      <point x="-67" y="899"/>
      <point x="-70" y="892" type="curve"/>
      <point x="-60" y="885" type="line"/>
      <point x="-54" y="895"/>
      <point x="-47" y="901"/>
      <point x="-30" y="901" type="curve" smooth="yes"/>
      <point x="-19" y="901"/>
      <point x="-8" y="898"/>
      <point x="-1" y="895" type="curve"/>
      <point x="-11" y="891"/>
      <point x="-21" y="886"/>
      <point x="-30" y="878" type="curve"/>
      <point x="-42" y="870"/>
      <point x="-53" y="858"/>
      <point x="-61" y="845" type="curve"/>
      <point x="-69" y="830"/>
      <point x="-75" y="812"/>
      <point x="-76" y="792" type="curve" smooth="yes"/>
    </contour>
    <contour>
      <point x="9" y="804"/>
      <point x="16" y="795"/>
      <point x="22" y="788" type="curve"/>
      <point x="30" y="794"/>
      <point x="39" y="804"/>
      <point x="43" y="809" type="curve"/>
      <point x="39" y="816"/>
      <point x="30" y="826"/>
      <point x="21" y="831" type="curve"/>
      <point x="16" y="826"/>
      <point x="6" y="815"/>
      <point x="0" y="810" type="curve"/>
    </contour>
    <contour>
      <point x="6" y="934" type="move" name="top"/>
    </contour>
    <contour>
      <point x="6" y="678" type="move" name="_top"/>
    </contour>
  </outline>
</glyph>
<glyph name="uni08E5" format="1">
  <advance width="0"/>
  <unicode hex="08E5"/>
  <outline>
    <contour>
      <point x="63" y="781" type="line"/>
      <point x="81" y="817"/>
      <point x="88" y="860"/>
      <point x="60" y="874" type="curve" smooth="yes"/>
      <point x="39" y="886"/>
      <point x="12" y="875"/>
      <point x="-12" y="846" type="curve" smooth="yes"/>
      <point x="-26" y="829"/>
      <point x="-30" y="814"/>
      <point x="-27" y="799" type="curve" smooth="yes"/>
      <point x="-22" y="781"/>
      <point x="-7" y="769"/>
      <point x="12" y="761" type="curve"/>
      <point x="-1" y="749"/>
      <point x="-15" y="745"/>
      <point x="-28" y="745" type="curve" smooth="yes"/>
      <point x="-44" y="745"/>
      <point x="-57" y="752"/>
      <point x="-63" y="766" type="curve"/>
      <point x="-76" y="752"/>
      <point x="-81" y="744"/>
      <point x="-90" y="727" type="curve"/>
      <point x="-76" y="708"/>
      <point x="-55" y="700"/>
      <point x="-36" y="701" type="curve" smooth="yes"/>
      <point x="-16" y="701"/>
      <point x="2" y="709"/>
      <point x="13" y="717" type="curve" smooth="yes"/>
      <point x="29" y="728"/>
      <point x="37" y="738"/>
      <point x="45" y="749" type="curve"/>
      <point x="78" y="734" type="line"/>
      <point x="80" y="753"/>
      <point x="79" y="760"/>
      <point x="77" y="775" type="curve"/>
    </contour>
    <contour>
      <point x="22" y="801" type="line" smooth="yes"/>
      <point x="7" y="810"/>
      <point x="2" y="818"/>
      <point x="2" y="824" type="curve" smooth="yes"/>
      <point x="2" y="832"/>
      <point x="8" y="840"/>
      <point x="19" y="844" type="curve" smooth="yes"/>
      <point x="27" y="846"/>
      <point x="35" y="844"/>
      <point x="43" y="837" type="curve" smooth="yes"/>
      <point x="52" y="828"/>
      <point x="50" y="809"/>
      <point x="41" y="791" type="curve"/>
    </contour>
    <contour>
      <point x="1" y="880" type="move" name="top"/>
    </contour>
    <contour>
      <point x="1" y="680" type="move" name="_top"/>
    </contour>
  </outline>
</glyph>
<glyph name="uni25A3" format="1">
  <advance width="396"/>
  <unicode hex="25A3"/>
  <outline>
    <contour>
      <point x="350" y="303" type="line"/>
      <point x="47" y="303" type="line"/>
      <point x="47" y="0" type="line"/>
      <point x="350" y="0" type="line"/>
    </contour>
    <contour>
      <point x="95" y="255" type="line"/>
      <point x="302" y="255" type="line"/>
      <point x="302" y="48" type="line"/>
      <point x="95" y="48" type="line"/>
    </contour>
    <contour>
      <point x="269" y="222" type="line"/>
      <point x="128" y="222" type="line"/>
      <point x="128" y="81" type="line"/>
      <point x="269" y="81" type="line"/>
    </contour>
  </outline>
</glyph>
<glyph name="uni25C8" format="1">
  <advance width="628"/>
  <unicode hex="25C8"/>
  <outline>
    <contour>
      <point x="582" y="67" type="line"/>
      <point x="314" y="334" type="line"/>
      <point x="47" y="66" type="line"/>
      <point x="315" y="-202" type="line"/>
    </contour>
    <contour>
      <point x="314" y="250" type="line"/>
      <point x="497" y="67" type="line"/>
      <point x="315" y="-117" type="line"/>
      <point x="131" y="67" type="line"/>
    </contour>
    <contour>
      <point x="438" y="67" type="line"/>
      <point x="314" y="191" type="line"/>
      <point x="189" y="67" type="line"/>
      <point x="314" y="-58" type="line"/>
    </contour>
  </outline>
</glyph>
<glyph name="uni25EF" format="1">
  <advance width="416"/>
  <unicode hex="25EF"/>
  <outline>
    <contour>
      <point x="370" y="250"/>
      <point x="297" y="323"/>
      <point x="208" y="323" type="curve" smooth="yes"/>
      <point x="119" y="323"/>
      <point x="47" y="250"/>
      <point x="47" y="161" type="curve" smooth="yes"/>
      <point x="47" y="72"/>
      <point x="119" y="0"/>
      <point x="208" y="0" type="curve" smooth="yes"/>
      <point x="297" y="0"/>
      <point x="370" y="72"/>
      <point x="370" y="161" type="curve" smooth="yes"/>
    </contour>
  </outline>
</glyph>
<glyph name="uniFBAB" format="1">
  <advance width="669"/>
  <unicode hex="FBAB"/>
  <outline>
    <contour>
      <point x="605" y="125" type="line" smooth="yes"/>
      <point x="579" y="125"/>
      <point x="558" y="126"/>
      <point x="546" y="137" type="curve"/>
      <point x="547" y="182"/>
      <point x="528" y="219"/>
      <point x="509" y="244" type="curve" smooth="yes"/>
      <point x="485" y="277"/>
      <point x="455" y="301"/>
      <point x="415" y="325" type="curve" smooth="yes"/>
      <point x="395" y="337"/>
      <point x="375" y="348"/>
      <point x="354" y="358" type="curve" smooth="yes"/>
      <point x="327" y="372"/>
      <point x="317" y="377"/>
      <point x="297" y="390" type="curve"/>
      <point x="288" y="376"/>
      <point x="279" y="361"/>
      <point x="271" y="346" type="curve" smooth="yes"/>
      <point x="257" y="321"/>
      <point x="258" y="305"/>
      <point x="276" y="294" type="curve" smooth="yes"/>
      <point x="288" y="288" type="line"/>
      <point x="261" y="280"/>
      <point x="236" y="262"/>
      <point x="221" y="240" type="curve" smooth="yes"/>
      <point x="207" y="220"/>
      <point x="198" y="194"/>
      <point x="196" y="168" type="curve" smooth="yes"/>
      <point x="194" y="142"/>
      <point x="199" y="116"/>
      <point x="215" y="94" type="curve"/>
      <point x="191" y="74"/>
      <point x="144" y="50"/>
      <point x="74" y="28" type="curve"/>
      <point x="63" y="-7" type="line"/>
      <point x="123" y="-18"/>
      <point x="172" y="-16"/>
      <point x="216" y="-9" type="curve" smooth="yes"/>
      <point x="256" y="-2"/>
      <point x="293" y="15"/>
      <point x="330" y="48" type="curve"/>
      <point x="367" y="35"/>
      <point x="423" y="6"/>
      <point x="455" y="-10" type="curve"/>
      <point x="483" y="18" type="line"/>
      <point x="494" y="29"/>
      <point x="504" y="39"/>
      <point x="510" y="51" type="curve"/>
      <point x="517" y="36"/>
      <point x="528" y="25"/>
      <point x="540" y="17" type="curve" smooth="yes"/>
      <point x="558" y="5"/>
      <point x="583" y="0"/>
      <point x="613" y="0" type="curve" smooth="yes"/>
      <point x="669" y="0" type="line"/>
      <point x="669" y="125" type="line"/>
    </contour>
    <contour>
      <point x="362" y="213"/>
      <point x="367" y="196"/>
      <point x="367" y="191" type="curve" smooth="yes"/>
      <point x="367" y="186"/>
      <point x="362" y="172"/>
      <point x="347" y="160" type="curve"/>
      <point x="332" y="152"/>
      <point x="319" y="149"/>
      <point x="313" y="149" type="curve" smooth="yes"/>
      <point x="306" y="149"/>
      <point x="292" y="151"/>
      <point x="270" y="163" type="curve"/>
      <point x="255" y="171"/>
      <point x="245" y="182"/>
      <point x="243" y="189" type="curve"/>
      <point x="244" y="194"/>
      <point x="253" y="207"/>
      <point x="275" y="227" type="curve"/>
      <point x="300" y="248"/>
      <point x="315" y="254"/>
      <point x="324" y="254" type="curve" smooth="yes"/>
      <point x="336" y="254"/>
      <point x="346" y="242"/>
      <point x="352" y="229" type="curve"/>
    </contour>
    <contour>
      <point x="474" y="158"/>
      <point x="481" y="133"/>
      <point x="481" y="104" type="curve"/>
      <point x="451" y="112"/>
      <point x="411" y="123"/>
      <point x="384" y="130" type="curve"/>
      <point x="395" y="146"/>
      <point x="404" y="163"/>
      <point x="406" y="180" type="curve" smooth="yes"/>
      <point x="410" y="199"/>
      <point x="406" y="219"/>
      <point x="401" y="239" type="curve"/>
      <point x="428" y="221"/>
      <point x="447" y="202"/>
      <point x="460" y="181" type="curve" smooth="yes"/>
    </contour>
    <contour>
      <point x="297" y="420" type="move" name="top"/>
    </contour>
    <contour>
      <point x="332" y="-26" type="move" name="bottom"/>
    </contour>
  </outline>
</glyph>
<glyph name="uniFBB7" format="1">
  <advance width="0"/>
  <unicode hex="FBB7"/>
  <outline>
    <contour>
      <point x="35" y="-210"/>
      <point x="14" y="-232"/>
      <point x="-3" y="-250" type="curve"/>
      <point x="-17" y="-231"/>
      <point x="-38" y="-212"/>
      <point x="-59" y="-200" type="curve"/>
      <point x="-69" y="-213"/>
      <point x="-101" y="-246"/>
      <point x="-119" y="-261" type="curve"/>
      <point x="-93" y="-280"/>
      <point x="-71" y="-303"/>
      <point x="-54" y="-324" type="curve"/>
      <point x="-36" y="-309"/>
      <point x="-14" y="-287"/>
      <point x="-1" y="-272" type="curve"/>
      <point x="18" y="-289"/>
      <point x="35" y="-307"/>
      <point x="48" y="-324" type="curve"/>
      <point x="71" y="-306"/>
      <point x="98" y="-277"/>
      <point x="108" y="-264" type="curve"/>
      <point x="97" y="-242"/>
      <point x="71" y="-215"/>
      <point x="44" y="-200" type="curve"/>
    </contour>
    <contour>
      <point x="20" y="-183"/>
      <point x="47" y="-155"/>
      <point x="57" y="-141" type="curve"/>
      <point x="46" y="-119"/>
      <point x="20" y="-92"/>
      <point x="-7" y="-77" type="curve"/>
      <point x="-18" y="-90"/>
      <point x="-50" y="-123"/>
      <point x="-67" y="-138" type="curve"/>
      <point x="-42" y="-157"/>
      <point x="-19" y="-180"/>
      <point x="-3" y="-201" type="curve"/>
    </contour>
    <contour>
      <point x="-5" y="-43" type="move" name="_bottom"/>
    </contour>
    <contour>
      <point x="-5" y="-324" type="move" name="bottom"/>
    </contour>
  </outline>
</glyph>
<glyph name="uniFBB8" format="1">
  <advance width="0"/>
  <unicode hex="FBB8"/>
  <outline>
    <contour>
      <point x="98" y="889"/>
      <point x="73" y="916"/>
      <point x="45" y="931" type="curve"/>
      <point x="37" y="921"/>
      <point x="15" y="898"/>
      <point x="-2" y="882" type="curve"/>
      <point x="-16" y="900"/>
      <point x="-36" y="919"/>
      <point x="-57" y="931" type="curve"/>
      <point x="-68" y="918"/>
      <point x="-100" y="885"/>
      <point x="-117" y="870" type="curve"/>
      <point x="-91" y="852"/>
      <point x="-70" y="828"/>
      <point x="-52" y="807" type="curve"/>
      <point x="-34" y="822"/>
      <point x="-12" y="844"/>
      <point x="1" y="858" type="curve"/>
      <point x="20" y="842"/>
      <point x="37" y="824"/>
      <point x="50" y="807" type="curve"/>
      <point x="73" y="825"/>
      <point x="100" y="854"/>
      <point x="110" y="867" type="curve"/>
    </contour>
    <contour>
      <point x="51" y="766"/>
      <point x="25" y="793"/>
      <point x="-2" y="809" type="curve"/>
      <point x="-12" y="796"/>
      <point x="-44" y="764"/>
      <point x="-62" y="748" type="curve"/>
      <point x="-37" y="729"/>
      <point x="-14" y="706"/>
      <point x="3" y="685" type="curve"/>
      <point x="26" y="703"/>
      <point x="53" y="732"/>
      <point x="63" y="745" type="curve"/>
    </contour>
    <contour>
      <point x="-5" y="940" type="move" name="top"/>
    </contour>
    <contour>
      <point x="-5" y="660" type="move" name="_top"/>
    </contour>
  </outline>
</glyph>
<glyph name="uniFBBC" format="1">
  <advance width="0"/>
  <unicode hex="FBBC"/>
  <outline>
    <contour>
      <point x="-53" y="-237"/>
      <point x="-39" y="-269"/>
      <point x="-43" y="-320" type="curve"/>
      <point x="-19" y="-313" type="line"/>
      <point x="-11" y="-267"/>
      <point x="-15" y="-221"/>
      <point x="-33" y="-188" type="curve"/>
      <point x="-48" y="-196"/>
      <point x="-56" y="-203"/>
      <point x="-67" y="-214" type="curve"/>
    </contour>
    <contour>
      <point x="22" y="-237"/>
      <point x="36" y="-269"/>
      <point x="32" y="-320" type="curve"/>
      <point x="56" y="-313" type="line"/>
      <point x="63" y="-267"/>
      <point x="59" y="-221"/>
      <point x="42" y="-188" type="curve"/>
      <point x="27" y="-196"/>
      <point x="19" y="-203"/>
      <point x="8" y="-214" type="curve"/>
    </contour>
    <contour>
      <point x="0" y="-169" type="move" name="_bottom"/>
    </contour>
    <contour>
      <point x="0" y="-320" type="move" name="bottom"/>
    </contour>
  </outline>
</glyph>
<glyph name="uniFBBE" format="1">
  <advance width="0"/>
  <unicode hex="FBBE"/>
  <outline>
    <contour>
      <point x="36" y="-153"/>
      <point x="55" y="-132"/>
      <point x="63" y="-122" type="curve"/>
      <point x="52" y="-100"/>
      <point x="26" y="-73"/>
      <point x="-1" y="-57" type="curve"/>
      <point x="-12" y="-70"/>
      <point x="-44" y="-103"/>
      <point x="-61" y="-118" type="curve"/>
      <point x="-41" y="-133"/>
      <point x="-23" y="-151"/>
      <point x="-8" y="-168" type="curve"/>
      <point x="-22" y="-184"/>
      <point x="-46" y="-208"/>
      <point x="-61" y="-221" type="curve"/>
      <point x="-35" y="-240"/>
      <point x="-13" y="-264"/>
      <point x="4" y="-284" type="curve"/>
      <point x="27" y="-266"/>
      <point x="53" y="-238"/>
      <point x="63" y="-224" type="curve"/>
      <point x="55" y="-207"/>
      <point x="37" y="-187"/>
      <point x="16" y="-171" type="curve"/>
    </contour>
    <contour>
      <point x="2" y="-26" type="move" name="_bottom"/>
    </contour>
    <contour>
      <point x="2" y="-285" type="move" name="bottom"/>
    </contour>
  </outline>
</glyph>
<glyph name="uniFC21" format="1">
  <advance width="890"/>
  <unicode hex="FC21"/>
  <outline>
    <contour>
      <point x="837" y="330"/>
      <point x="824" y="360"/>
      <point x="795" y="382" type="curve" smooth="yes"/>
      <point x="772" y="401"/>
      <point x="741" y="412"/>
      <point x="714" y="412" type="curve" smooth="yes"/>
      <point x="654" y="412"/>
      <point x="587" y="356"/>
      <point x="537" y="304" type="curve" smooth="yes"/>
      <point x="503" y="267"/>
      <point x="473" y="226"/>
      <point x="448" y="189" type="curve"/>
      <point x="429" y="195"/>
      <point x="420" y="222"/>
      <point x="401" y="245" type="curve" smooth="yes"/>
      <point x="378" y="270"/>
      <point x="355" y="281"/>
      <point x="325" y="280" type="curve" smooth="yes"/>
      <point x="302" y="280"/>
      <point x="279" y="272"/>
      <point x="258" y="258" type="curve" smooth="yes"/>
      <point x="237" y="244"/>
      <point x="217" y="223"/>
      <point x="203" y="202" type="curve" smooth="yes"/>
      <point x="193" y="187"/>
      <point x="182" y="167"/>
      <point x="175" y="148" type="curve" smooth="yes"/>
      <point x="168" y="130"/>
      <point x="164" y="105"/>
      <point x="164" y="91" type="curve"/>
      <point x="126" y="73"/>
      <point x="99" y="47"/>
      <point x="82" y="19" type="curve" smooth="yes"/>
      <point x="65" y="-12"/>
      <point x="54" y="-52"/>
      <point x="61" y="-99" type="curve" smooth="yes"/>
      <point x="91" y="-286"/>
      <point x="101" y="-372"/>
      <point x="107" y="-437" type="curve"/>
      <point x="159" y="-416" type="line"/>
      <point x="157" y="-347"/>
      <point x="150" y="-250"/>
      <point x="145" y="-192" type="curve" smooth="yes"/>
      <point x="139" y="-135"/>
      <point x="133" y="-85"/>
      <point x="125" y="-31" type="curve"/>
      <point x="142" y="-16"/>
      <point x="168" y="-3"/>
      <point x="226" y="-3" type="curve" smooth="yes"/>
      <point x="266" y="-3"/>
      <point x="296" y="-10"/>
      <point x="333" y="-21" type="curve"/>
      <point x="356" y="9"/>
      <point x="369" y="32"/>
      <point x="381" y="70" type="curve"/>
      <point x="358" y="93"/>
      <point x="297" y="130"/>
      <point x="243" y="140" type="curve"/>
      <point x="259" y="159"/>
      <point x="290" y="177"/>
      <point x="323" y="177" type="curve" smooth="yes"/>
      <point x="370" y="177"/>
      <point x="398" y="147"/>
      <point x="426" y="118" type="curve" smooth="yes"/>
      <point x="450" y="93"/>
      <point x="476" y="69"/>
      <point x="541" y="69" type="curve"/>
      <point x="614" y="72"/>
      <point x="691" y="102"/>
      <point x="739" y="138" type="curve" smooth="yes"/>
      <point x="766" y="159"/>
      <point x="792" y="188"/>
      <point x="809" y="215" type="curve" smooth="yes"/>
      <point x="827" y="245"/>
      <point x="837" y="279"/>
      <point x="837" y="303" type="curve" smooth="yes"/>
    </contour>
    <contour>
      <point x="745" y="234"/>
      <point x="729" y="220"/>
      <point x="703" y="208" type="curve" smooth="yes"/>
      <point x="675" y="196"/>
      <point x="643" y="189"/>
      <point x="607" y="189" type="curve" smooth="yes"/>
      <point x="509" y="189" type="line"/>
      <point x="525" y="212"/>
      <point x="545" y="236"/>
      <point x="562" y="253" type="curve" smooth="yes"/>
      <point x="595" y="288"/>
      <point x="630" y="312"/>
      <point x="672" y="312" type="curve" smooth="yes"/>
      <point x="703" y="312"/>
      <point x="722" y="298"/>
      <point x="734" y="286" type="curve"/>
      <point x="746" y="273"/>
      <point x="752" y="258"/>
      <point x="756" y="246" type="curve"/>
    </contour>
    <contour>
      <point x="447" y="0" type="move" name="caret_1"/>
    </contour>
    <contour>
      <point x="597" y="29" type="move" name="bottom_1"/>
    </contour>
    <contour>
      <point x="693" y="442" type="move" name="top_1"/>
    </contour>
    <contour>
      <point x="187" y="293" type="move" name="top_2"/>
    </contour>
    <contour>
      <point x="135" y="-457" type="move" name="bottom_2"/>
    </contour>
  </outline>
</glyph>
<glyph name="uniFCB3" format="1">
  <advance width="800"/>
  <unicode hex="FCB3"/>
  <outline>
    <contour>
      <point x="747" y="380"/>
      <point x="734" y="410"/>
      <point x="706" y="432" type="curve" smooth="yes"/>
      <point x="682" y="450"/>
      <point x="651" y="462"/>
      <point x="624" y="462" type="curve" smooth="yes"/>
      <point x="564" y="462"/>
      <point x="497" y="406"/>
      <point x="448" y="353" type="curve" smooth="yes"/>
      <point x="413" y="317"/>
      <point x="384" y="276"/>
      <point x="358" y="239" type="curve"/>
      <point x="333" y="249"/>
      <point x="319" y="271"/>
      <point x="304" y="290" type="curve" smooth="yes"/>
      <point x="292" y="307"/>
      <point x="277" y="322"/>
      <point x="244" y="322" type="curve" smooth="yes"/>
      <point x="215" y="322"/>
      <point x="189" y="311"/>
      <point x="166" y="295" type="curve" smooth="yes"/>
      <point x="149" y="282"/>
      <point x="133" y="265"/>
      <point x="121" y="247" type="curve" smooth="yes"/>
      <point x="108" y="229"/>
      <point x="96" y="205"/>
      <point x="90" y="187" type="curve" smooth="yes"/>
      <point x="85" y="169"/>
      <point x="82" y="147"/>
      <point x="84" y="125" type="curve"/>
      <point x="71" y="121"/>
      <point x="31" y="124"/>
      <point x="9" y="125" type="curve"/>
      <point x="-13" y="125" type="line" smooth="yes"/>
      <point x="-48" y="125"/>
      <point x="-76" y="102"/>
      <point x="-76" y="63" type="curve" smooth="yes"/>
      <point x="-76" y="23"/>
      <point x="-47" y="0"/>
      <point x="-13" y="0" type="curve" smooth="yes"/>
      <point x="12" y="0" type="line" smooth="yes"/>
      <point x="71" y="0"/>
      <point x="95" y="10"/>
      <point x="135" y="10" type="curve" smooth="yes"/>
      <point x="164" y="10"/>
      <point x="195" y="4"/>
      <point x="244" y="-23" type="curve"/>
      <point x="261" y="26"/>
      <point x="268" y="72"/>
      <point x="267" y="114" type="curve"/>
      <point x="221" y="126"/>
      <point x="165" y="142"/>
      <point x="165" y="173" type="curve" smooth="yes"/>
      <point x="165" y="197"/>
      <point x="191" y="228"/>
      <point x="237" y="228" type="curve" smooth="yes"/>
      <point x="274" y="228"/>
      <point x="294" y="198"/>
      <point x="314" y="172" type="curve" smooth="yes"/>
      <point x="330" y="150"/>
      <point x="342" y="140"/>
      <point x="363" y="131" type="curve" smooth="yes"/>
      <point x="397" y="119"/>
      <point x="431" y="118"/>
      <point x="451" y="119" type="curve" smooth="yes"/>
      <point x="524" y="121"/>
      <point x="602" y="152"/>
      <point x="649" y="188" type="curve" smooth="yes"/>
      <point x="677" y="209"/>
      <point x="703" y="237"/>
      <point x="719" y="264" type="curve" smooth="yes"/>
      <point x="737" y="295"/>
      <point x="747" y="328"/>
      <point x="747" y="352" type="curve" smooth="yes"/>
    </contour>
    <contour>
      <point x="656" y="284"/>
      <point x="640" y="270"/>
      <point x="614" y="258" type="curve" smooth="yes"/>
      <point x="586" y="246"/>
      <point x="554" y="239"/>
      <point x="518" y="239" type="curve" smooth="yes"/>
      <point x="420" y="239" type="line"/>
      <point x="436" y="262"/>
      <point x="456" y="286"/>
      <point x="473" y="303" type="curve" smooth="yes"/>
      <point x="506" y="338"/>
      <point x="541" y="361"/>
      <point x="583" y="361" type="curve" smooth="yes"/>
      <point x="614" y="361"/>
      <point x="633" y="347"/>
      <point x="645" y="335" type="curve"/>
      <point x="657" y="323"/>
      <point x="663" y="308"/>
      <point x="667" y="296" type="curve"/>
    </contour>
    <contour>
      <point x="400" y="0" type="move" name="caret_1"/>
    </contour>
    <contour>
      <point x="464" y="78" type="move" name="bottom_1"/>
    </contour>
    <contour>
      <point x="604" y="492" type="move" name="top_1"/>
    </contour>
    <contour>
      <point x="128" y="344" type="move" name="top_2"/>
    </contour>
    <contour>
      <point x="156" y="-48" type="move" name="bottom_2"/>
    </contour>
  </outline>
</glyph>
<glyph name="uniFCD1" format="1">
  <advance width="400"/>
  <unicode hex="FCD1"/>
  <outline>
    <contour>
      <point x="345" y="368"/>
      <point x="353" y="417"/>
      <point x="341" y="439" type="curve" smooth="yes"/>
      <point x="330" y="458"/>
      <point x="303" y="473"/>
      <point x="270" y="483" type="curve" smooth="yes"/>
      <point x="254" y="487"/>
      <point x="232" y="490"/>
      <point x="208" y="499" type="curve"/>
      <point x="200" y="491"/>
      <point x="183" y="471"/>
      <point x="176" y="431" type="curve" smooth="yes"/>
      <point x="171" y="408"/>
      <point x="171" y="383"/>
      <point x="178" y="365" type="curve"/>
      <point x="151" y="350"/>
      <point x="133" y="339"/>
      <point x="113" y="318" type="curve" smooth="yes"/>
      <point x="87" y="291"/>
      <point x="69" y="256"/>
      <point x="69" y="212" type="curve" smooth="yes"/>
      <point x="69" y="181"/>
      <point x="83" y="158"/>
      <point x="97" y="139" type="curve"/>
      <point x="91" y="137"/>
      <point x="79" y="125"/>
      <point x="35" y="125" type="curve" smooth="yes"/>
      <point x="-13" y="125" type="line" smooth="yes"/>
      <point x="-60" y="125"/>
      <point x="-76" y="82"/>
      <point x="-76" y="63" type="curve" smooth="yes"/>
      <point x="-76" y="28"/>
      <point x="-48" y="0"/>
      <point x="-13" y="0" type="curve" smooth="yes"/>
      <point x="20" y="0" type="line" smooth="yes"/>
      <point x="69" y="0"/>
      <point x="96" y="16"/>
      <point x="141" y="16" type="curve" smooth="yes"/>
      <point x="174" y="16"/>
      <point x="217" y="4"/>
      <point x="256" y="-23" type="curve"/>
      <point x="276" y="20"/>
      <point x="282" y="87"/>
      <point x="278" y="131" type="curve"/>
      <point x="247" y="152"/>
      <point x="224" y="163"/>
      <point x="196" y="174" type="curve" smooth="yes"/>
      <point x="148" y="192"/>
      <point x="133" y="210"/>
      <point x="133" y="223" type="curve"/>
      <point x="149" y="250"/>
      <point x="199" y="278"/>
      <point x="231" y="291" type="curve" smooth="yes"/>
      <point x="254" y="301"/>
      <point x="297" y="315"/>
      <point x="331" y="323" type="curve" smooth="yes"/>
    </contour>
    <contour>
      <point x="190" y="0" type="move" name="caret_1"/>
    </contour>
    <contour>
      <point x="241" y="-117" type="move" name="bottom_1"/>
    </contour>
    <contour>
      <point x="265" y="541" type="move" name="top_1"/>
    </contour>
    <contour>
      <point x="37" y="381" type="move" name="top_2"/>
    </contour>
    <contour>
      <point x="31" y="-53" type="move" name="bottom_2"/>
    </contour>
  </outline>
</glyph>
<glyph name="uniFD3E" format="1">
  <advance width="509"/>
  <unicode hex="FD3E"/>
  <outline>
    <contour>
      <point x="59" y="205"/>
      <point x="80" y="196"/>
      <point x="132" y="188" type="curve"/>
      <point x="140" y="135"/>
      <point x="169" y="119"/>
      <point x="190" y="114" type="curve" smooth="yes"/>
      <point x="203" y="110"/>
      <point x="214" y="110"/>
      <point x="219" y="110" type="curve" smooth="yes"/>
      <point x="216" y="148"/>
      <point x="222" y="191"/>
      <point x="283" y="217" type="curve"/>
      <point x="272" y="205"/>
      <point x="257" y="185"/>
      <point x="256" y="148" type="curve" smooth="yes"/>
      <point x="254" y="70"/>
      <point x="317" y="45"/>
      <point x="309" y="16" type="curve" smooth="yes"/>
      <point x="304" y="-1"/>
      <point x="277" y="2"/>
      <point x="272" y="8" type="curve" smooth="yes"/>
      <point x="276" y="8"/>
      <point x="275" y="-31"/>
      <point x="306" y="-37" type="curve" smooth="yes"/>
      <point x="323" y="-40"/>
      <point x="336" y="-33"/>
      <point x="348" y="-25" type="curve"/>
      <point x="380" y="-61"/>
      <point x="408" y="-105"/>
      <point x="416" y="-144" type="curve"/>
      <point x="408" y="-141"/>
      <point x="399" y="-138"/>
      <point x="391" y="-138" type="curve" smooth="yes"/>
      <point x="358" y="-138"/>
      <point x="338" y="-164"/>
      <point x="338" y="-189" type="curve" smooth="yes"/>
      <point x="338" y="-215"/>
      <point x="359" y="-243"/>
      <point x="391" y="-243" type="curve"/>
      <point x="440" y="-243"/>
      <point x="472" y="-197"/>
      <point x="472" y="-145" type="curve" smooth="yes"/>
      <point x="475" y="-66"/>
      <point x="409" y="16"/>
      <point x="356" y="73" type="curve"/>
      <point x="358" y="80"/>
      <point x="361" y="86"/>
      <point x="357" y="97" type="curve" smooth="yes"/>
      <point x="352" y="109"/>
      <point x="338" y="110"/>
      <point x="322" y="118" type="curve" smooth="yes"/>
      <point x="305" y="129"/>
      <point x="296" y="138"/>
      <point x="304" y="166" type="curve"/>
      <point x="311" y="152"/>
      <point x="325" y="141"/>
      <point x="345" y="141" type="curve" smooth="yes"/>
      <point x="368" y="141"/>
      <point x="386" y="155"/>
      <point x="392" y="172" type="curve" smooth="yes"/>
      <point x="400" y="191"/>
      <point x="400" y="219"/>
      <point x="379" y="234" type="curve"/>
      <point x="389" y="243"/>
      <point x="398" y="255"/>
      <point x="398" y="274" type="curve" smooth="yes"/>
      <point x="398" y="303"/>
      <point x="375" y="326"/>
      <point x="344" y="326" type="curve" smooth="yes"/>
      <point x="326" y="326"/>
      <point x="311" y="317"/>
      <point x="304" y="301" type="curve"/>
      <point x="296" y="328"/>
      <point x="307" y="340"/>
      <point x="320" y="350" type="curve" smooth="yes"/>
      <point x="337" y="358"/>
      <point x="351" y="357"/>
      <point x="357" y="370" type="curve" smooth="yes"/>
      <point x="361" y="381"/>
      <point x="359" y="387"/>
      <point x="356" y="394" type="curve"/>
      <point x="403" y="443"/>
      <point x="475" y="532"/>
      <point x="472" y="612" type="curve" smooth="yes"/>
      <point x="472" y="660"/>
      <point x="443" y="709"/>
      <point x="391" y="710" type="curve"/>
      <point x="359" y="710"/>
      <point x="338" y="682"/>
      <point x="338" y="656" type="curve" smooth="yes"/>
      <point x="338" y="632"/>
      <point x="357" y="606"/>
      <point x="391" y="606" type="curve" smooth="yes"/>
      <point x="399" y="606"/>
      <point x="406" y="608"/>
      <point x="416" y="611" type="curve"/>
      <point x="408" y="572"/>
      <point x="382" y="531"/>
      <point x="348" y="492" type="curve"/>
      <point x="336" y="501"/>
      <point x="322" y="507"/>
      <point x="306" y="504" type="curve" smooth="yes"/>
      <point x="286" y="499"/>
      <point x="276" y="484"/>
      <point x="267" y="457" type="curve"/>
      <point x="289" y="475"/>
      <point x="307" y="467"/>
      <point x="309" y="451" type="curve" smooth="yes"/>
      <point x="315" y="420"/>
      <point x="254" y="397"/>
      <point x="256" y="320" type="curve" smooth="yes"/>
      <point x="257" y="285"/>
      <point x="271" y="264"/>
      <point x="282" y="251" type="curve"/>
      <point x="223" y="277"/>
      <point x="216" y="318"/>
      <point x="219" y="358" type="curve" smooth="yes"/>
      <point x="213" y="358"/>
      <point x="201" y="356"/>
      <point x="189" y="351" type="curve" smooth="yes"/>
      <point x="168" y="346"/>
      <point x="140" y="332"/>
      <point x="132" y="280" type="curve"/>
      <point x="85" y="272"/>
      <point x="57" y="263"/>
      <point x="37" y="234" type="curve" smooth="yes"/>
    </contour>
  </outline>
</glyph>
<glyph name="uniFD3F" format="1">
  <advance width="509"/>
  <unicode hex="FD3F"/>
  <outline>
    <contour>
      <point x="450" y="263"/>
      <point x="429" y="272"/>
      <point x="377" y="280" type="curve"/>
      <point x="369" y="333"/>
      <point x="340" y="349"/>
      <point x="319" y="354" type="curve" smooth="yes"/>
      <point x="306" y="358"/>
      <point x="295" y="358"/>
      <point x="290" y="358" type="curve" smooth="yes"/>
      <point x="293" y="320"/>
      <point x="287" y="277"/>
      <point x="226" y="251" type="curve"/>
      <point x="237" y="263"/>
      <point x="252" y="283"/>
      <point x="253" y="320" type="curve" smooth="yes"/>
      <point x="255" y="398"/>
      <point x="192" y="423"/>
      <point x="200" y="452" type="curve" smooth="yes"/>
      <point x="205" y="469"/>
      <point x="232" y="466"/>
      <point x="237" y="460" type="curve" smooth="yes"/>
      <point x="233" y="460"/>
      <point x="234" y="499"/>
      <point x="203" y="505" type="curve" smooth="yes"/>
      <point x="186" y="508"/>
      <point x="173" y="501"/>
      <point x="161" y="493" type="curve"/>
      <point x="128" y="529"/>
      <point x="103" y="573"/>
      <point x="93" y="612" type="curve"/>
      <point x="101" y="609"/>
      <point x="110" y="606"/>
      <point x="118" y="606" type="curve" smooth="yes"/>
      <point x="151" y="606"/>
      <point x="171" y="632"/>
      <point x="171" y="657" type="curve" smooth="yes"/>
      <point x="171" y="683"/>
      <point x="150" y="711"/>
      <point x="118" y="711" type="curve"/>
      <point x="69" y="711"/>
      <point x="37" y="665"/>
      <point x="37" y="613" type="curve" smooth="yes"/>
      <point x="34" y="534"/>
      <point x="100" y="452"/>
      <point x="153" y="395" type="curve"/>
      <point x="151" y="388"/>
      <point x="148" y="382"/>
      <point x="152" y="371" type="curve" smooth="yes"/>
      <point x="157" y="360"/>
      <point x="168" y="359"/>
      <point x="187" y="350" type="curve" smooth="yes"/>
      <point x="204" y="339"/>
      <point x="213" y="330"/>
      <point x="205" y="302" type="curve"/>
      <point x="198" y="316"/>
      <point x="184" y="327"/>
      <point x="164" y="327" type="curve" smooth="yes"/>
      <point x="141" y="327"/>
      <point x="123" y="313"/>
      <point x="117" y="296" type="curve" smooth="yes"/>
      <point x="109" y="277"/>
      <point x="109" y="249"/>
      <point x="130" y="234" type="curve"/>
      <point x="120" y="225"/>
      <point x="111" y="213"/>
      <point x="111" y="194" type="curve" smooth="yes"/>
      <point x="111" y="165"/>
      <point x="134" y="142"/>
      <point x="165" y="142" type="curve" smooth="yes"/>
      <point x="183" y="142"/>
      <point x="198" y="151"/>
      <point x="205" y="167" type="curve"/>
      <point x="218" y="147"/>
      <point x="202" y="129"/>
      <point x="189" y="118" type="curve" smooth="yes"/>
      <point x="178" y="110"/>
      <point x="159" y="114"/>
      <point x="152" y="98" type="curve" smooth="yes"/>
      <point x="148" y="88"/>
      <point x="150" y="81"/>
      <point x="153" y="74" type="curve"/>
      <point x="106" y="25"/>
      <point x="34" y="-64"/>
      <point x="37" y="-144" type="curve" smooth="yes"/>
      <point x="37" y="-192"/>
      <point x="66" y="-241"/>
      <point x="118" y="-242" type="curve"/>
      <point x="150" y="-242"/>
      <point x="171" y="-214"/>
      <point x="171" y="-188" type="curve" smooth="yes"/>
      <point x="171" y="-164"/>
      <point x="152" y="-138"/>
      <point x="118" y="-138" type="curve" smooth="yes"/>
      <point x="110" y="-138"/>
      <point x="103" y="-140"/>
      <point x="93" y="-143" type="curve"/>
      <point x="101" y="-106"/>
      <point x="127" y="-61"/>
      <point x="161" y="-24" type="curve"/>
      <point x="173" y="-33"/>
      <point x="187" y="-39"/>
      <point x="203" y="-36" type="curve" smooth="yes"/>
      <point x="223" y="-31"/>
      <point x="233" y="-16"/>
      <point x="242" y="11" type="curve"/>
      <point x="220" y="-7"/>
      <point x="202" y="1"/>
      <point x="200" y="17" type="curve" smooth="yes"/>
      <point x="194" y="48"/>
      <point x="255" y="71"/>
      <point x="253" y="148" type="curve" smooth="yes"/>
      <point x="252" y="183"/>
      <point x="238" y="204"/>
      <point x="227" y="217" type="curve"/>
      <point x="286" y="191"/>
      <point x="293" y="150"/>
      <point x="290" y="110" type="curve" smooth="yes"/>
      <point x="296" y="110"/>
      <point x="308" y="112"/>
      <point x="320" y="117" type="curve" smooth="yes"/>
      <point x="341" y="122"/>
      <point x="369" y="136"/>
      <point x="377" y="188" type="curve"/>
      <point x="424" y="196"/>
      <point x="452" y="205"/>
      <point x="472" y="234" type="curve" smooth="yes"/>
    </contour>
  </outline>
</glyph>
<glyph name="uniFEAA" format="1">
  <advance width="537"/>
  <unicode hex="FEAA"/>
  <outline>
    <contour>
      <point x="315" y="391"/>
      <point x="292" y="364"/>
      <point x="270" y="335" type="curve"/>
      <point x="307" y="205" type="line"/>
      <point x="305" y="168"/>
      <point x="276" y="119"/>
      <point x="214" y="119" type="curve" smooth="yes"/>
      <point x="175" y="119" type="line" smooth="yes"/>
      <point x="145" y="119"/>
      <point x="123" y="127"/>
      <point x="109" y="142" type="curve" smooth="yes"/>
      <point x="97" y="155"/>
      <point x="92" y="171"/>
      <point x="92" y="203" type="curve"/>
      <point x="53" y="190" type="line"/>
      <point x="40" y="125"/>
      <point x="48" y="74"/>
      <point x="75" y="41" type="curve" smooth="yes"/>
      <point x="100" y="11"/>
      <point x="139" y="-4"/>
      <point x="193" y="-4" type="curve" smooth="yes"/>
      <point x="291" y="-4"/>
      <point x="331" y="48"/>
      <point x="350" y="92" type="curve"/>
      <point x="361" y="63"/>
      <point x="377" y="44"/>
      <point x="398" y="28" type="curve" smooth="yes"/>
      <point x="423" y="9"/>
      <point x="455" y="0"/>
      <point x="492" y="0" type="curve" smooth="yes"/>
      <point x="537" y="0" type="line"/>
      <point x="537" y="125" type="line"/>
      <point x="493" y="125" type="line" smooth="yes"/>
      <point x="442" y="125"/>
      <point x="417" y="149"/>
      <point x="393" y="221" type="curve"/>
      <point x="337" y="413" type="line"/>
    </contour>
    <contour>
      <point x="277" y="430" type="move" name="top"/>
    </contour>
    <contour>
      <point x="194" y="-32" type="move" name="bottom"/>
    </contour>
  </outline>
</glyph>
<glyph name="uniFEB4" format="1">
  <advance width="558"/>
  <unicode hex="FEB4"/>
  <outline>
    <contour>
      <point x="518" y="125" type="line" smooth="yes"/>
      <point x="493" y="125"/>
      <point x="476" y="131"/>
      <point x="466" y="143" type="curve" smooth="yes"/>
      <point x="450" y="161"/>
      <point x="453" y="186"/>
      <point x="457" y="223" type="curve"/>
      <point x="416" y="207" type="line"/>
      <point x="415" y="188"/>
      <point x="412" y="170"/>
      <point x="406" y="155" type="curve" smooth="yes"/>
      <point x="397" y="135"/>
      <point x="381" y="122"/>
      <point x="356" y="122" type="curve" smooth="yes"/>
      <point x="322" y="122"/>
      <point x="311" y="144"/>
      <point x="310" y="172" type="curve" smooth="yes"/>
      <point x="308" y="187"/>
      <point x="310" y="205"/>
      <point x="313" y="223" type="curve"/>
      <point x="272" y="207" type="line"/>
      <point x="271" y="184"/>
      <point x="265" y="164"/>
      <point x="255" y="149" type="curve" smooth="yes"/>
      <point x="243" y="132"/>
      <point x="225" y="121"/>
      <point x="200" y="121" type="curve" smooth="yes"/>
      <point x="159" y="121"/>
      <point x="146" y="143"/>
      <point x="143" y="171" type="curve" smooth="yes"/>
      <point x="142" y="187"/>
      <point x="144" y="205"/>
      <point x="146" y="223" type="curve"/>
      <point x="105" y="207" type="line"/>
      <point x="101" y="186"/>
      <point x="100" y="174"/>
      <point x="88" y="156" type="curve" smooth="yes"/>
      <point x="76" y="138"/>
      <point x="58" y="125"/>
      <point x="32" y="125" type="curve" smooth="yes"/>
      <point x="-13" y="125" type="line" smooth="yes"/>
      <point x="-47" y="125"/>
      <point x="-76" y="96"/>
      <point x="-76" y="62" type="curve" smooth="yes"/>
      <point x="-76" y="23"/>
      <point x="-44" y="0"/>
      <point x="-13" y="0" type="curve" smooth="yes"/>
      <point x="25" y="0" type="line" smooth="yes"/>
      <point x="83" y="0"/>
      <point x="106" y="35"/>
      <point x="114" y="56" type="curve"/>
      <point x="117" y="37"/>
      <point x="137" y="-2"/>
      <point x="192" y="-2" type="curve" smooth="yes"/>
      <point x="242" y="-2"/>
      <point x="273" y="34"/>
      <point x="281" y="56" type="curve"/>
      <point x="284" y="32"/>
      <point x="303" y="-2"/>
      <point x="348" y="-2" type="curve" smooth="yes"/>
      <point x="403" y="-2"/>
      <point x="422" y="41"/>
      <point x="427" y="57" type="curve"/>
      <point x="437" y="22"/>
      <point x="471" y="0"/>
      <point x="516" y="0" type="curve" smooth="yes"/>
      <point x="559" y="0" type="line"/>
      <point x="559" y="125" type="line"/>
    </contour>
    <contour>
      <point x="288" y="256" type="move" name="top"/>
    </contour>
    <contour>
      <point x="274" y="-28" type="move" name="bottom"/>
    </contour>
  </outline>
</glyph>
<glyph name="uniFEDB" format="1">
  <advance width="307"/>
  <unicode hex="FEDB"/>
  <outline>
    <contour>
      <point x="277" y="517"/>
      <point x="282" y="551"/>
      <point x="288" y="595" type="curve"/>
      <point x="184" y="546"/>
      <point x="62" y="481"/>
      <point x="-13" y="421" type="curve"/>
      <point x="-21" y="390"/>
      <point x="-26" y="368"/>
      <point x="-30" y="326" type="curve"/>
      <point x="14" y="276" type="line"/>
      <point x="24" y="298" type="line"/>
      <point x="75" y="259"/>
      <point x="143" y="189"/>
      <point x="143" y="157" type="curve"/>
      <point x="136" y="146"/>
      <point x="113" y="125"/>
      <point x="81" y="125" type="curve" smooth="yes"/>
      <point x="-13" y="125" type="line" smooth="yes"/>
      <point x="-48" y="125"/>
      <point x="-76" y="97"/>
      <point x="-76" y="62" type="curve" smooth="yes"/>
      <point x="-76" y="27"/>
      <point x="-48" y="0"/>
      <point x="-13" y="0" type="curve" smooth="yes"/>
      <point x="75" y="0" type="line" smooth="yes"/>
      <point x="160" y="0"/>
      <point x="212" y="51"/>
      <point x="212" y="142" type="curve" smooth="yes"/>
      <point x="212" y="193"/>
      <point x="195" y="239"/>
      <point x="169" y="281" type="curve" smooth="yes"/>
      <point x="148" y="316"/>
      <point x="116" y="350"/>
      <point x="77" y="381" type="curve"/>
      <point x="136" y="414"/>
      <point x="209" y="449"/>
      <point x="266" y="473" type="curve"/>
    </contour>
    <contour>
      <point x="106" y="559" type="move" name="top"/>
    </contour>
    <contour>
      <point x="59" y="-27" type="move" name="bottom"/>
    </contour>
  </outline>
</glyph>
<glyph name="uniFEE3" format="1">
  <advance width="424"/>
  <unicode hex="FEE3"/>
  <outline>
    <contour>
      <point x="372" y="109"/>
      <point x="374" y="147"/>
      <point x="367" y="184" type="curve" smooth="yes"/>
      <point x="362" y="214"/>
      <point x="354" y="238"/>
      <point x="338" y="258" type="curve" smooth="yes"/>
      <point x="321" y="281"/>
      <point x="298" y="293"/>
      <point x="271" y="293" type="curve" smooth="yes"/>
      <point x="238" y="293"/>
      <point x="210" y="275"/>
      <point x="188" y="246" type="curve" smooth="yes"/>
      <point x="173" y="228"/>
      <point x="162" y="206"/>
      <point x="155" y="188" type="curve"/>
      <point x="139" y="197" type="line"/>
      <point x="126" y="171"/>
      <point x="121" y="161"/>
      <point x="108" y="145" type="curve" smooth="yes"/>
      <point x="97" y="132"/>
      <point x="80" y="125"/>
      <point x="59" y="125" type="curve" smooth="yes"/>
      <point x="-14" y="125" type="line" smooth="yes"/>
      <point x="-53" y="125"/>
      <point x="-76" y="96"/>
      <point x="-76" y="63" type="curve" smooth="yes"/>
      <point x="-76" y="28"/>
      <point x="-49" y="0"/>
      <point x="-14" y="0" type="curve" smooth="yes"/>
      <point x="18" y="0" type="line" smooth="yes"/>
      <point x="86" y="0"/>
      <point x="131" y="6"/>
      <point x="151" y="65" type="curve"/>
      <point x="205" y="31"/>
      <point x="252" y="18"/>
      <point x="326" y="10" type="curve"/>
      <point x="363" y="79" type="line"/>
    </contour>
    <contour>
      <point x="268" y="209"/>
      <point x="294" y="190"/>
      <point x="310" y="163" type="curve" smooth="yes"/>
      <point x="321" y="144"/>
      <point x="326" y="121"/>
      <point x="328" y="109" type="curve"/>
      <point x="283" y="122"/>
      <point x="238" y="143"/>
      <point x="188" y="169" type="curve"/>
      <point x="188" y="169"/>
      <point x="201" y="209"/>
      <point x="240" y="209" type="curve" smooth="yes"/>
    </contour>
    <contour>
      <point x="264" y="323" type="move" name="top"/>
    </contour>
    <contour>
      <point x="162" y="-10" type="move" name="bottom"/>
    </contour>
  </outline>
</glyph>
<glyph name="TahSmallTwoDotscenterar" format="1">
  <advance width="0"/>
  <outline>
    <contour>
      <point x="39" y="271"/>
      <point x="18" y="249"/>
      <point x="0" y="233" type="curve"/>
      <point x="-13" y="251"/>
      <point x="-34" y="270"/>
      <point x="-55" y="282" type="curve"/>
      <point x="-66" y="269"/>
      <point x="-98" y="237"/>
      <point x="-115" y="221" type="curve"/>
      <point x="-89" y="202"/>
      <point x="-67" y="179"/>
      <point x="-50" y="158" type="curve"/>
      <point x="-32" y="173"/>
      <point x="-10" y="195"/>
      <point x="3" y="209" type="curve"/>
      <point x="22" y="193"/>
      <point x="39" y="174"/>
      <point x="53" y="158" type="curve"/>
      <point x="75" y="176"/>
      <point x="102" y="205"/>
      <point x="112" y="218" type="curve"/>
      <point x="101" y="240"/>
      <point x="75" y="266"/>
      <point x="47" y="282" type="curve"/>
    </contour>
    <contour>
      <point x="-49" y="457" type="line"/>
      <point x="-40" y="442"/>
      <point x="-28" y="400"/>
      <point x="-27" y="360" type="curve"/>
      <point x="-34" y="346" type="line"/>
      <point x="-65" y="346" type="line"/>
      <point x="-53" y="301" type="line"/>
      <point x="-8" y="301" type="line"/>
      <point x="13" y="301"/>
      <point x="37" y="310"/>
      <point x="55" y="323" type="curve" smooth="yes"/>
      <point x="75" y="339"/>
      <point x="85" y="358"/>
      <point x="85" y="378" type="curve" smooth="yes"/>
      <point x="85" y="397"/>
      <point x="61" y="413"/>
      <point x="44" y="413" type="curve" smooth="yes"/>
      <point x="30" y="413"/>
      <point x="10" y="403"/>
      <point x="-8" y="377" type="curve"/>
      <point x="-6" y="394"/>
      <point x="-6" y="408"/>
      <point x="-10" y="427" type="curve"/>
      <point x="-11" y="443"/>
      <point x="-8" y="447"/>
      <point x="3" y="452" type="curve"/>
      <point x="-8" y="464"/>
      <point x="-16" y="476"/>
      <point x="-23" y="490" type="curve"/>
    </contour>
    <contour>
      <point x="54" y="354"/>
      <point x="35" y="344"/>
      <point x="16" y="344" type="curve" smooth="yes"/>
      <point x="-10" y="344" type="line"/>
      <point x="-1" y="360"/>
      <point x="13" y="379"/>
      <point x="32" y="379" type="curve" smooth="yes"/>
      <point x="49" y="379"/>
      <point x="57" y="370"/>
      <point x="61" y="363" type="curve"/>
    </contour>
    <contour>
      <point x="3" y="294" type="move" name="_center"/>
    </contour>
  </outline>
</glyph>
<glyph name="circumflex.arabic" format="1">
  <advance width="0"/>
  <outline>
    <contour>
      <point x="-71" y="724"/>
      <point x="-66" y="713"/>
      <point x="-59" y="700" type="curve"/>
      <point x="-41" y="722"/>
      <point x="-30" y="737"/>
      <point x="-20" y="755" type="curve" smooth="yes"/>
      <point x="-12" y="769"/>
      <point x="-5" y="784"/>
      <point x="2" y="806" type="curve"/>
      <point x="7" y="789"/>
      <point x="14" y="772"/>
      <point x="24" y="755" type="curve" smooth="yes"/>
      <point x="34" y="737"/>
      <point x="48" y="719"/>
      <point x="63" y="700" type="curve"/>
      <point x="70" y="712"/>
      <point x="75" y="721"/>
      <point x="78" y="735" type="curve"/>
      <point x="51" y="768"/>
      <point x="32" y="798"/>
      <point x="22" y="831" type="curve" smooth="yes"/>
      <point x="18" y="846"/>
      <point x="15" y="861"/>
      <point x="13" y="877" type="curve"/>
      <point x="-8" y="877" type="line"/>
      <point x="-10" y="859"/>
      <point x="-12" y="842"/>
      <point x="-19" y="825" type="curve" smooth="yes"/>
      <point x="-31" y="795"/>
      <point x="-48" y="765"/>
      <point x="-74" y="735" type="curve"/>
    </contour>
    <contour>
      <point x="1" y="877" type="move" name="top"/>
    </contour>
    <contour>
      <point x="1" y="680" type="move" name="_top"/>
    </contour>
  </outline>
</glyph>
<glyph name="dots.horz.belowar" format="1">
  <advance width="0"/>
  <outline>
    <contour>
      <point x="-139" y="-258"/>
      <point x="-117" y="-281"/>
      <point x="-100" y="-302" type="curve"/>
      <point x="-82" y="-287"/>
      <point x="-60" y="-265"/>
      <point x="-47" y="-251" type="curve"/>
      <point x="-28" y="-267"/>
      <point x="-11" y="-286"/>
      <point x="3" y="-302" type="curve"/>
      <point x="14" y="-292"/>
      <point x="46" y="-261"/>
      <point x="56" y="-251" type="curve"/>
      <point x="75" y="-267"/>
      <point x="93" y="-286"/>
      <point x="106" y="-302" type="curve"/>
      <point x="129" y="-284"/>
      <point x="155" y="-255"/>
      <point x="165" y="-242" type="curve"/>
      <point x="154" y="-220"/>
      <point x="128" y="-194"/>
      <point x="101" y="-178" type="curve"/>
      <point x="92" y="-189"/>
      <point x="71" y="-211"/>
      <point x="54" y="-227" type="curve"/>
      <point x="40" y="-209"/>
      <point x="20" y="-190"/>
      <point x="-2" y="-178" type="curve"/>
      <point x="-8" y="-185"/>
      <point x="-40" y="-218"/>
      <point x="-50" y="-227" type="curve"/>
      <point x="-63" y="-209"/>
      <point x="-84" y="-190"/>
      <point x="-105" y="-178" type="curve"/>
      <point x="-116" y="-191"/>
      <point x="-148" y="-223"/>
      <point x="-165" y="-239" type="curve"/>
    </contour>
    <contour>
      <point x="-2" y="-158" type="move" name="_bottom"/>
    </contour>
    <contour>
      <point x="3" y="-302" type="move" name="bottom"/>
    </contour>
  </outline>
</glyph>
<glyph name="fourdotscenterar" format="1">
  <advance width="0"/>
  <outline>
    <contour>
      <point x="-92" y="199"/>
      <point x="-70" y="176"/>
      <point x="-52" y="155" type="curve"/>
      <point x="-35" y="170"/>
      <point x="-13" y="192"/>
      <point x="0" y="207" type="curve"/>
      <point x="19" y="190"/>
      <point x="37" y="172"/>
      <point x="50" y="155" type="curve"/>
      <point x="73" y="174"/>
      <point x="99" y="202"/>
      <point x="109" y="215" type="curve"/>
      <point x="100" y="235"/>
      <point x="79" y="257"/>
      <point x="55" y="273" type="curve"/>
      <point x="77" y="292"/>
      <point x="100" y="317"/>
      <point x="109" y="330" type="curve"/>
      <point x="98" y="352"/>
      <point x="72" y="379"/>
      <point x="45" y="394" type="curve"/>
      <point x="36" y="383"/>
      <point x="15" y="361"/>
      <point x="-2" y="344" type="curve"/>
      <point x="-16" y="363"/>
      <point x="-36" y="382"/>
      <point x="-58" y="394" type="curve"/>
      <point x="-68" y="381"/>
      <point x="-100" y="348"/>
      <point x="-118" y="333" type="curve"/>
      <point x="-95" y="316"/>
      <point x="-75" y="296"/>
      <point x="-59" y="278" type="curve"/>
      <point x="-71" y="263"/>
      <point x="-101" y="233"/>
      <point x="-118" y="219" type="curve"/>
    </contour>
    <contour>
      <point x="-30" y="288"/>
      <point x="-10" y="307"/>
      <point x="1" y="321" type="curve"/>
      <point x="17" y="307"/>
      <point x="32" y="292"/>
      <point x="44" y="278" type="curve"/>
      <point x="35" y="266"/>
      <point x="15" y="246"/>
      <point x="-2" y="230" type="curve"/>
      <point x="-13" y="245"/>
      <point x="-29" y="261"/>
      <point x="-46" y="273" type="curve"/>
    </contour>
    <contour>
      <point x="-4" y="290" type="move" name="_center"/>
    </contour>
  </outline>
</glyph>
<glyph name="uni0607.pt" format="1">
  <advance width="611"/>
  <outline>
    <contour>
      <point x="287" y="210" type="line"/>
      <point x="120" y="595" type="line"/>
      <point x="50" y="595" type="line"/>
      <point x="307" y="0" type="line"/>
      <point x="467" y="324" type="line"/>
      <point x="541" y="324" type="line"/>
      <point x="561" y="393" type="line"/>
      <point x="376" y="393" type="line"/>
    </contour>
  </outline>
</glyph>
<glyph name="uni06430643" format="1">
  <advance width="1041"/>
  <outline>
    <contour>
      <point x="1010" y="517"/>
      <point x="1015" y="551"/>
      <point x="1020" y="595" type="curve"/>
      <point x="920" y="548"/>
      <point x="773" y="474"/>
      <point x="697" y="403" type="curve"/>
      <point x="691" y="463"/>
      <point x="684" y="524"/>
      <point x="677" y="595" type="curve"/>
      <point x="638" y="556"/>
      <point x="617" y="521"/>
      <point x="593" y="485" type="curve"/>
      <point x="609" y="389"/>
      <point x="625" y="320"/>
      <point x="637" y="199" type="curve" smooth="yes"/>
      <point x="640" y="172"/>
      <point x="636" y="154"/>
      <point x="620" y="140" type="curve"/>
      <point x="609" y="129"/>
      <point x="594" y="122"/>
      <point x="571" y="122" type="curve"/>
      <point x="518" y="121"/>
      <point x="469" y="121"/>
      <point x="415" y="120" type="curve" smooth="yes"/>
      <point x="322" y="119"/>
      <point x="264" y="123"/>
      <point x="239" y="126" type="curve" smooth="yes"/>
      <point x="201" y="132"/>
      <point x="155" y="148"/>
      <point x="131" y="176" type="curve" smooth="yes"/>
      <point x="120" y="190"/>
      <point x="108" y="212"/>
      <point x="105" y="245" type="curve"/>
      <point x="69" y="255" type="line"/>
      <point x="60" y="193"/>
      <point x="60" y="148"/>
      <point x="77" y="108" type="curve" smooth="yes"/>
      <point x="87" y="84"/>
      <point x="104" y="60"/>
      <point x="127" y="42" type="curve" smooth="yes"/>
      <point x="151" y="24"/>
      <point x="189" y="6"/>
      <point x="237" y="-2" type="curve" smooth="yes"/>
      <point x="274" y="-8"/>
      <point x="329" y="-9"/>
      <point x="400" y="-8" type="curve" smooth="yes"/>
      <point x="461" y="-7"/>
      <point x="504" y="-7"/>
      <point x="575" y="-6" type="curve" smooth="yes"/>
      <point x="638" y="-6"/>
      <point x="681" y="12"/>
      <point x="697" y="63" type="curve"/>
      <point x="716" y="17"/>
      <point x="758" y="0"/>
      <point x="809" y="0" type="curve" smooth="yes"/>
      <point x="888" y="0"/>
      <point x="945" y="51"/>
      <point x="945" y="142" type="curve" smooth="yes"/>
      <point x="945" y="193"/>
      <point x="927" y="239"/>
      <point x="902" y="281" type="curve" smooth="yes"/>
      <point x="881" y="316"/>
      <point x="849" y="350"/>
      <point x="809" y="381" type="curve"/>
      <point x="869" y="414"/>
      <point x="942" y="449"/>
      <point x="999" y="473" type="curve"/>
    </contour>
    <contour>
      <point x="856" y="128"/>
      <point x="836" y="122"/>
      <point x="805" y="122" type="curve"/>
      <point x="778" y="122"/>
      <point x="756" y="127"/>
      <point x="741" y="140" type="curve" smooth="yes"/>
      <point x="729" y="152"/>
      <point x="721" y="170"/>
      <point x="719" y="193" type="curve" smooth="yes"/>
      <point x="715" y="230"/>
      <point x="711" y="269"/>
      <point x="705" y="322" type="curve"/>
      <point x="790" y="292"/>
      <point x="876" y="188"/>
      <point x="876" y="157" type="curve"/>
    </contour>
    <contour>
      <point x="475" y="283"/>
      <point x="449" y="287"/>
      <point x="418" y="287" type="curve" smooth="yes"/>
      <point x="398" y="287"/>
      <point x="381" y="290"/>
      <point x="381" y="301" type="curve"/>
      <point x="394" y="312"/>
      <point x="414" y="322"/>
      <point x="439" y="329" type="curve"/>
      <point x="451" y="344"/>
      <point x="458" y="356"/>
      <point x="469" y="380" type="curve"/>
      <point x="444" y="375"/>
      <point x="416" y="367"/>
      <point x="386" y="352" type="curve"/>
      <point x="352" y="333"/>
      <point x="334" y="310"/>
      <point x="334" y="282" type="curve" smooth="yes"/>
      <point x="334" y="257"/>
      <point x="355" y="247"/>
      <point x="387" y="247" type="curve" smooth="yes"/>
      <point x="408" y="246"/>
      <point x="417" y="245"/>
      <point x="417" y="238" type="curve"/>
      <point x="417" y="224"/>
      <point x="334" y="199"/>
      <point x="281" y="185" type="curve"/>
      <point x="322" y="176"/>
      <point x="363" y="175"/>
      <point x="408" y="182" type="curve" smooth="yes"/>
      <point x="456" y="211"/>
      <point x="475" y="233"/>
      <point x="475" y="259" type="curve" smooth="yes"/>
    </contour>
    <contour>
      <point x="504" y="0" type="move" name="caret_1"/>
    </contour>
    <contour>
      <point x="799" y="-28" type="move" name="bottom_1"/>
    </contour>
    <contour>
      <point x="857" y="595" type="move" name="top_1"/>
    </contour>
    <contour>
      <point x="379" y="393" type="move" name="top_2"/>
    </contour>
    <contour>
      <point x="409" y="-38" type="move" name="bottom_2"/>
    </contour>
  </outline>
</glyph>
<glyph name="uni064306440649" format="1">
  <advance width="915"/>
  <outline>
    <contour>
      <point x="795" y="548"/>
      <point x="650" y="474"/>
      <point x="575" y="404" type="curve"/>
      <point x="569" y="467"/>
      <point x="563" y="529"/>
      <point x="556" y="595" type="curve"/>
      <point x="523" y="560"/>
      <point x="500" y="530"/>
      <point x="472" y="485" type="curve"/>
      <point x="478" y="448"/>
      <point x="499" y="346"/>
      <point x="510" y="263" type="curve" smooth="yes"/>
      <point x="516" y="209"/>
      <point x="522" y="168"/>
      <point x="528" y="118" type="curve"/>
      <point x="508" y="81"/>
      <point x="432" y="54"/>
      <point x="388" y="53" type="curve"/>
      <point x="381" y="29"/>
      <point x="377" y="4"/>
      <point x="376" y="-30" type="curve"/>
      <point x="416" y="-33"/>
      <point x="447" y="-38"/>
      <point x="476" y="-45" type="curve" smooth="yes"/>
      <point x="514" y="-55"/>
      <point x="536" y="-69"/>
      <point x="536" y="-83" type="curve"/>
      <point x="536" y="-112"/>
      <point x="489" y="-136"/>
      <point x="437" y="-149" type="curve" smooth="yes"/>
      <point x="397" y="-160"/>
      <point x="346" y="-171"/>
      <point x="293" y="-171" type="curve" smooth="yes"/>
      <point x="220" y="-171"/>
      <point x="173" y="-151"/>
      <point x="147" y="-119" type="curve" smooth="yes"/>
      <point x="120" y="-88"/>
      <point x="118" y="-35"/>
      <point x="131" y="26" type="curve"/>
      <point x="96" y="39" type="line"/>
      <point x="75" y="-14"/>
      <point x="64" y="-63"/>
      <point x="61" y="-100" type="curve" smooth="yes"/>
      <point x="58" y="-136"/>
      <point x="63" y="-167"/>
      <point x="74" y="-195" type="curve" smooth="yes"/>
      <point x="90" y="-232"/>
      <point x="115" y="-260"/>
      <point x="153" y="-280" type="curve" smooth="yes"/>
      <point x="190" y="-299"/>
      <point x="236" y="-309"/>
      <point x="283" y="-309" type="curve" smooth="yes"/>
      <point x="339" y="-309"/>
      <point x="396" y="-297"/>
      <point x="446" y="-275" type="curve" smooth="yes"/>
      <point x="492" y="-256"/>
      <point x="535" y="-227"/>
      <point x="562" y="-191" type="curve" smooth="yes"/>
      <point x="584" y="-162"/>
      <point x="599" y="-127"/>
      <point x="599" y="-88" type="curve" smooth="yes"/>
      <point x="599" y="-36"/>
      <point x="564" y="-4"/>
      <point x="517" y="10" type="curve"/>
      <point x="544" y="21"/>
      <point x="570" y="51"/>
      <point x="576" y="77" type="curve"/>
      <point x="596" y="30"/>
      <point x="640" y="0"/>
      <point x="687" y="0" type="curve" smooth="yes"/>
      <point x="770" y="0"/>
      <point x="820" y="53"/>
      <point x="820" y="142" type="curve" smooth="yes"/>
      <point x="820" y="193"/>
      <point x="803" y="239"/>
      <point x="777" y="281" type="curve" smooth="yes"/>
      <point x="756" y="316"/>
      <point x="723" y="350"/>
      <point x="684" y="381" type="curve"/>
      <point x="743" y="414"/>
      <point x="816" y="449"/>
      <point x="873" y="473" type="curve"/>
      <point x="884" y="517"/>
      <point x="889" y="551"/>
      <point x="895" y="595" type="curve"/>
    </contour>
    <contour>
      <point x="738" y="136"/>
      <point x="714" y="121"/>
      <point x="677" y="121" type="curve"/>
      <point x="647" y="121"/>
      <point x="630" y="129"/>
      <point x="616" y="144" type="curve" smooth="yes"/>
      <point x="602" y="159"/>
      <point x="599" y="181"/>
      <point x="598" y="193" type="curve" smooth="yes"/>
      <point x="593" y="240"/>
      <point x="588" y="285"/>
      <point x="583" y="329" type="curve"/>
      <point x="650" y="299"/>
      <point x="751" y="188"/>
      <point x="751" y="157" type="curve"/>
    </contour>
    <contour>
      <point x="757" y="-58" type="move" name="bottom_1"/>
    </contour>
    <contour>
      <point x="443" y="593" type="move" name="top_2"/>
    </contour>
    <contour>
      <point x="590" y="0" type="move" name="caret_2"/>
    </contour>
    <contour>
      <point x="305" y="0" type="move" name="caret_1"/>
    </contour>
    <contour>
      <point x="289" y="-339" type="move" name="bottom_3"/>
    </contour>
    <contour>
      <point x="772" y="611" type="move" name="top_1"/>
    </contour>
    <contour>
      <point x="556" y="-292" type="move" name="bottom_2"/>
    </contour>
    <contour>
      <point x="253" y="43" type="move" name="top_3"/>
    </contour>
  </outline>
</glyph>
<glyph name="uni064406470649" format="1">
  <advance width="964"/>
  <outline>
    <contour>
      <point x="61" y="-101"/>
      <point x="64" y="-137"/>
      <point x="77" y="-170" type="curve" smooth="yes"/>
      <point x="92" y="-205"/>
      <point x="117" y="-233"/>
      <point x="156" y="-254" type="curve" smooth="yes"/>
      <point x="192" y="-273"/>
      <point x="237" y="-283"/>
      <point x="287" y="-283" type="curve" smooth="yes"/>
      <point x="349" y="-283"/>
      <point x="422" y="-268"/>
      <point x="477" y="-239" type="curve" smooth="yes"/>
      <point x="530" y="-212"/>
      <point x="570" y="-172"/>
      <point x="592" y="-131" type="curve" smooth="yes"/>
      <point x="609" y="-100"/>
      <point x="615" y="-71"/>
      <point x="615" y="-49" type="curve"/>
      <point x="615" y="-4"/>
      <point x="592" y="21"/>
      <point x="556" y="38" type="curve"/>
      <point x="589" y="42"/>
      <point x="621" y="51"/>
      <point x="648" y="63" type="curve"/>
      <point x="708" y="35"/>
      <point x="746" y="28"/>
      <point x="800" y="-10" type="curve"/>
      <point x="817" y="8"/>
      <point x="836" y="28"/>
      <point x="853" y="46" type="curve" smooth="yes"/>
      <point x="876" y="71"/>
      <point x="891" y="107"/>
      <point x="891" y="142" type="curve" smooth="yes"/>
      <point x="891" y="173"/>
      <point x="879" y="201"/>
      <point x="857" y="226" type="curve" smooth="yes"/>
      <point x="837" y="247"/>
      <point x="812" y="263"/>
      <point x="789" y="279" type="curve"/>
      <point x="757" y="300"/>
      <point x="732" y="317"/>
      <point x="721" y="346" type="curve" smooth="yes"/>
      <point x="714" y="362"/>
      <point x="706" y="388"/>
      <point x="702" y="412" type="curve" smooth="yes"/>
      <point x="696" y="444"/>
      <point x="710" y="466"/>
      <point x="737" y="486" type="curve"/>
      <point x="703" y="517"/>
      <point x="678" y="555"/>
      <point x="660" y="594" type="curve"/>
      <point x="592" y="494" type="line"/>
      <point x="613" y="447"/>
      <point x="640" y="360"/>
      <point x="650" y="307" type="curve"/>
      <point x="613" y="293"/>
      <point x="578" y="267"/>
      <point x="555" y="222" type="curve" smooth="yes"/>
      <point x="532" y="176"/>
      <point x="536" y="139"/>
      <point x="568" y="115" type="curve"/>
      <point x="517" y="97"/>
      <point x="493" y="90"/>
      <point x="457" y="80" type="curve" smooth="yes"/>
      <point x="441" y="76"/>
      <point x="434" y="64"/>
      <point x="431" y="46" type="curve" smooth="yes"/>
      <point x="428" y="33"/>
      <point x="426" y="17"/>
      <point x="424" y="-2" type="curve"/>
      <point x="430" y="-4"/>
      <point x="456" y="-9"/>
      <point x="479" y="-16" type="curve" smooth="yes"/>
      <point x="512" y="-27"/>
      <point x="539" y="-42"/>
      <point x="539" y="-58" type="curve" smooth="yes"/>
      <point x="539" y="-82"/>
      <point x="504" y="-102"/>
      <point x="448" y="-120" type="curve" smooth="yes"/>
      <point x="416" y="-131"/>
      <point x="357" y="-144"/>
      <point x="297" y="-144" type="curve" smooth="yes"/>
      <point x="229" y="-144"/>
      <point x="177" y="-127"/>
      <point x="150" y="-94" type="curve" smooth="yes"/>
      <point x="121" y="-59"/>
      <point x="121" y="0"/>
      <point x="134" y="52" type="curve"/>
      <point x="99" y="64" type="line"/>
      <point x="81" y="21"/>
      <point x="68" y="-22"/>
      <point x="64" y="-68" type="curve" smooth="yes"/>
    </contour>
    <contour>
      <point x="588" y="197"/>
      <point x="604" y="216"/>
      <point x="623" y="231" type="curve"/>
      <point x="638" y="244"/>
      <point x="656" y="255"/>
      <point x="667" y="255" type="curve" smooth="yes"/>
      <point x="677" y="255"/>
      <point x="688" y="244"/>
      <point x="695" y="230" type="curve"/>
      <point x="704" y="217"/>
      <point x="710" y="201"/>
      <point x="710" y="191" type="curve" smooth="yes"/>
      <point x="710" y="180"/>
      <point x="702" y="170"/>
      <point x="692" y="162" type="curve"/>
      <point x="681" y="155"/>
      <point x="668" y="149"/>
      <point x="656" y="149" type="curve" smooth="yes"/>
      <point x="645" y="149"/>
      <point x="627" y="155"/>
      <point x="613" y="163" type="curve"/>
      <point x="601" y="170"/>
      <point x="589" y="180"/>
      <point x="586" y="189" type="curve"/>
    </contour>
    <contour>
      <point x="738" y="147"/>
      <point x="746" y="163"/>
      <point x="749" y="180" type="curve"/>
      <point x="751" y="197"/>
      <point x="750" y="215"/>
      <point x="745" y="235" type="curve"/>
      <point x="770" y="217"/>
      <point x="782" y="209"/>
      <point x="805" y="192" type="curve" smooth="yes"/>
      <point x="830" y="175"/>
      <point x="843" y="139"/>
      <point x="823" y="107" type="curve"/>
      <point x="805" y="112"/>
      <point x="751" y="124"/>
      <point x="726" y="131" type="curve"/>
    </contour>
    <contour>
      <point x="744" y="-75" type="move" name="bottom_1"/>
    </contour>
    <contour>
      <point x="766" y="420" type="move" name="top_2"/>
    </contour>
    <contour>
      <point x="638" y="0" type="move" name="caret_2"/>
    </contour>
    <contour>
      <point x="363" y="-26" type="move" name="caret_1"/>
    </contour>
    <contour>
      <point x="303" y="-313" type="move" name="bottom_3"/>
    </contour>
    <contour>
      <point x="625" y="595" type="move" name="top_1"/>
    </contour>
    <contour>
      <point x="550" y="-282" type="move" name="bottom_2"/>
    </contour>
    <contour>
      <point x="279" y="50" type="move" name="top_3"/>
    </contour>
  </outline>
</glyph>
<glyph name="uni0663.above" format="1">
  <advance width="0"/>
  <outline>
    <contour>
      <point x="77" y="833" type="line"/>
      <point x="77" y="818"/>
      <point x="73" y="799"/>
      <point x="54" y="799" type="curve" smooth="yes"/>
      <point x="31" y="799"/>
      <point x="29" y="820"/>
      <point x="30" y="840" type="curve"/>
      <point x="12" y="833" type="line"/>
      <point x="13" y="816"/>
      <point x="9" y="802"/>
      <point x="-10" y="802" type="curve" smooth="yes"/>
      <point x="-38" y="802"/>
      <point x="-54" y="836"/>
      <point x="-60" y="844" type="curve"/>
      <point x="-73" y="828"/>
      <point x="-80" y="817"/>
      <point x="-88" y="800" type="curve"/>
      <point x="-74" y="776"/>
      <point x="-63" y="748"/>
      <point x="-56" y="718" type="curve" smooth="yes"/>
      <point x="-47" y="678"/>
      <point x="-43" y="639"/>
      <point x="-46" y="595" type="curve"/>
      <point x="-25" y="595" type="line"/>
      <point x="-18" y="627"/>
      <point x="-13" y="656"/>
      <point x="-13" y="684" type="curve" smooth="yes"/>
      <point x="-12" y="706"/>
      <point x="-14" y="726"/>
      <point x="-18" y="749" type="curve"/>
      <point x="-4" y="749"/>
      <point x="8" y="752"/>
      <point x="19" y="765" type="curve"/>
      <point x="27" y="758"/>
      <point x="36" y="756"/>
      <point x="47" y="756" type="curve" smooth="yes"/>
      <point x="63" y="756"/>
      <point x="75" y="762"/>
      <point x="82" y="772" type="curve" smooth="yes"/>
      <point x="96" y="790"/>
      <point x="97" y="817"/>
      <point x="94" y="840" type="curve"/>
    </contour>
    <contour>
      <point x="-7" y="843" type="move" name="top"/>
    </contour>
    <contour>
      <point x="-9" y="585" type="move" name="_top"/>
    </contour>
  </outline>
</glyph>
<glyph name="uni066E062D" format="1">
  <advance width="623"/>
  <outline>
    <contour>
      <point x="465" y="271"/>
      <point x="436" y="278"/>
      <point x="381" y="286" type="curve" smooth="yes"/>
      <point x="310" y="296"/>
      <point x="270" y="297"/>
      <point x="243" y="295" type="curve"/>
      <point x="268" y="305"/>
      <point x="283" y="315"/>
      <point x="295" y="328" type="curve" smooth="yes"/>
      <point x="310" y="343"/>
      <point x="319" y="359"/>
      <point x="327" y="373" type="curve" smooth="yes"/>
      <point x="341" y="397"/>
      <point x="352" y="412"/>
      <point x="370" y="412" type="curve" smooth="yes"/>
      <point x="399" y="412"/>
      <point x="400" y="377"/>
      <point x="385" y="345" type="curve"/>
      <point x="413" y="345" type="line"/>
      <point x="430" y="367"/>
      <point x="441" y="396"/>
      <point x="441" y="428" type="curve" smooth="yes"/>
      <point x="441" y="468"/>
      <point x="423" y="509"/>
      <point x="380" y="509" type="curve" smooth="yes"/>
      <point x="346" y="509"/>
      <point x="323" y="485"/>
      <point x="300" y="456" type="curve" smooth="yes"/>
      <point x="292" y="445"/>
      <point x="265" y="411"/>
      <point x="239" y="386" type="curve" smooth="yes"/>
      <point x="221" y="369"/>
      <point x="196" y="348"/>
      <point x="166" y="332" type="curve" smooth="yes"/>
      <point x="144" y="321"/>
      <point x="122" y="307"/>
      <point x="105" y="278" type="curve" smooth="yes"/>
      <point x="98" y="264"/>
      <point x="92" y="246"/>
      <point x="84" y="211" type="curve"/>
      <point x="107" y="213"/>
      <point x="142" y="216"/>
      <point x="163" y="217" type="curve"/>
      <point x="166" y="217"/>
      <point x="170" y="217"/>
      <point x="174" y="217" type="curve" smooth="yes"/>
      <point x="211" y="217"/>
      <point x="256" y="211"/>
      <point x="272" y="209" type="curve"/>
      <point x="234" y="196"/>
      <point x="188" y="170"/>
      <point x="146" y="123" type="curve" smooth="yes"/>
      <point x="93" y="66"/>
      <point x="64" y="-10"/>
      <point x="63" y="-72" type="curve" smooth="yes"/>
      <point x="61" y="-134"/>
      <point x="83" y="-193"/>
      <point x="121" y="-235" type="curve" smooth="yes"/>
      <point x="166" y="-285"/>
      <point x="229" y="-311"/>
      <point x="294" y="-311" type="curve" smooth="yes"/>
      <point x="343" y="-311"/>
      <point x="373" y="-295"/>
      <point x="397" y="-283" type="curve" smooth="yes"/>
      <point x="427" y="-267"/>
      <point x="456" y="-257"/>
      <point x="495" y="-256" type="curve"/>
      <point x="508" y="-218" type="line"/>
      <point x="468" y="-211"/>
      <point x="443" y="-210"/>
      <point x="410" y="-208" type="curve"/>
      <point x="390" y="-207"/>
      <point x="350" y="-204"/>
      <point x="316" y="-198" type="curve" smooth="yes"/>
      <point x="258" y="-188"/>
      <point x="208" y="-167"/>
      <point x="177" y="-131" type="curve" smooth="yes"/>
      <point x="149" y="-98"/>
      <point x="139" y="-55"/>
      <point x="142" y="-19" type="curve" smooth="yes"/>
      <point x="149" y="48"/>
      <point x="201" y="109"/>
      <point x="269" y="144" type="curve" smooth="yes"/>
      <point x="314" y="167"/>
      <point x="368" y="179"/>
      <point x="421" y="179" type="curve" smooth="yes"/>
      <point x="441" y="179"/>
      <point x="460" y="178"/>
      <point x="477" y="176" type="curve"/>
      <point x="494" y="207"/>
      <point x="508" y="242"/>
      <point x="513" y="271" type="curve"/>
    </contour>
    <contour>
      <point x="292" y="6" type="move" name="caret_1"/>
    </contour>
    <contour>
      <point x="508" y="159" type="move" name="bottom_1"/>
    </contour>
    <contour>
      <point x="380" y="539" type="move" name="top_1"/>
    </contour>
    <contour>
      <point x="294" y="-341" type="move" name="bottom_2"/>
    </contour>
    <contour>
      <point x="149" y="410" type="move" name="top_2"/>
    </contour>
    <contour>
      <point x="288" y="33" type="move" name="center_2"/>
    </contour>
  </outline>
</glyph>
<glyph name="uni066E0645.fina" format="1">
  <advance width="543"/>
  <outline>
    <contour>
      <point x="494" y="125" type="line" smooth="yes"/>
      <point x="454" y="125"/>
      <point x="431" y="144"/>
      <point x="410" y="163" type="curve" smooth="yes"/>
      <point x="385" y="186"/>
      <point x="364" y="211"/>
      <point x="324" y="211" type="curve" smooth="yes"/>
      <point x="271" y="211"/>
      <point x="228" y="167"/>
      <point x="207" y="138" type="curve" smooth="yes"/>
      <point x="187" y="109"/>
      <point x="166" y="67"/>
      <point x="160" y="31" type="curve"/>
      <point x="123" y="11"/>
      <point x="102" y="-9"/>
      <point x="82" y="-41" type="curve" smooth="yes"/>
      <point x="65" y="-72"/>
      <point x="54" y="-112"/>
      <point x="61" y="-159" type="curve" smooth="yes"/>
      <point x="91" y="-346"/>
      <point x="101" y="-432"/>
      <point x="107" y="-497" type="curve"/>
      <point x="159" y="-476" type="line"/>
      <point x="159" y="-448"/>
      <point x="152" y="-335"/>
      <point x="145" y="-252" type="curve" smooth="yes"/>
      <point x="139" y="-195"/>
      <point x="133" y="-145"/>
      <point x="125" y="-91" type="curve"/>
      <point x="142" y="-75"/>
      <point x="162" y="-63"/>
      <point x="219" y="-63" type="curve" smooth="yes"/>
      <point x="259" y="-63"/>
      <point x="291" y="-73"/>
      <point x="329" y="-84" type="curve"/>
      <point x="352" y="-54"/>
      <point x="365" y="-31"/>
      <point x="377" y="7" type="curve"/>
      <point x="355" y="35"/>
      <point x="299" y="71"/>
      <point x="248" y="80" type="curve"/>
      <point x="263" y="98"/>
      <point x="287" y="118"/>
      <point x="317" y="118" type="curve" smooth="yes"/>
      <point x="365" y="118"/>
      <point x="387" y="94"/>
      <point x="405" y="68" type="curve" smooth="yes"/>
      <point x="429" y="36"/>
      <point x="447" y="0"/>
      <point x="507" y="0" type="curve" smooth="yes"/>
      <point x="543" y="0" type="line"/>
      <point x="543" y="125" type="line"/>
    </contour>
    <contour>
      <point x="269" y="0" type="move" name="caret_1"/>
    </contour>
    <contour>
      <point x="316" y="-141" type="move" name="bottom_1"/>
    </contour>
    <contour>
      <point x="290" y="241" type="move" name="top_1"/>
    </contour>
    <contour>
      <point x="71" y="115" type="move" name="top_2"/>
    </contour>
    <contour>
      <point x="134" y="-516" type="move" name="bottom_2"/>
    </contour>
  </outline>
</glyph>
<glyph name="uni066E06BA" format="1">
  <advance width="823"/>
  <outline>
    <contour>
      <point x="722" y="297" type="line"/>
      <point x="716" y="251"/>
      <point x="684" y="208"/>
      <point x="628" y="208" type="curve" smooth="yes"/>
      <point x="590" y="208"/>
      <point x="549" y="218"/>
      <point x="518" y="238" type="curve" smooth="yes"/>
      <point x="494" y="254"/>
      <point x="478" y="274"/>
      <point x="473" y="279" type="curve"/>
      <point x="451" y="251"/>
      <point x="433" y="224"/>
      <point x="414" y="192" type="curve"/>
      <point x="461" y="124"/>
      <point x="493" y="69"/>
      <point x="493" y="34" type="curve" smooth="yes"/>
      <point x="493" y="9"/>
      <point x="475" y="-12"/>
      <point x="443" y="-29" type="curve" smooth="yes"/>
      <point x="418" y="-43"/>
      <point x="372" y="-60"/>
      <point x="300" y="-60" type="curve" smooth="yes"/>
      <point x="262" y="-60"/>
      <point x="230" y="-54"/>
      <point x="207" y="-46" type="curve" smooth="yes"/>
      <point x="183" y="-38"/>
      <point x="161" y="-25"/>
      <point x="148" y="-7" type="curve" smooth="yes"/>
      <point x="122" y="26"/>
      <point x="124" y="71"/>
      <point x="134" y="125" type="curve"/>
      <point x="99" y="138" type="line"/>
      <point x="80" y="101"/>
      <point x="67" y="47"/>
      <point x="64" y="9" type="curve" smooth="yes"/>
      <point x="61" y="-27"/>
      <point x="67" y="-61"/>
      <point x="77" y="-86" type="curve" smooth="yes"/>
      <point x="92" y="-122"/>
      <point x="117" y="-150"/>
      <point x="156" y="-171" type="curve" smooth="yes"/>
      <point x="194" y="-191"/>
      <point x="238" y="-200"/>
      <point x="289" y="-200" type="curve" smooth="yes"/>
      <point x="337" y="-200"/>
      <point x="379" y="-192"/>
      <point x="413" y="-178" type="curve" smooth="yes"/>
      <point x="463" y="-159"/>
      <point x="503" y="-123"/>
      <point x="527" y="-77" type="curve" smooth="yes"/>
      <point x="559" y="-25"/>
      <point x="565" y="44"/>
      <point x="553" y="109" type="curve"/>
      <point x="574" y="98"/>
      <point x="593" y="93"/>
      <point x="624" y="92" type="curve" smooth="yes"/>
      <point x="668" y="90"/>
      <point x="707" y="107"/>
      <point x="731" y="139" type="curve" smooth="yes"/>
      <point x="766" y="184"/>
      <point x="778" y="250"/>
      <point x="763" y="314" type="curve"/>
    </contour>
    <contour>
      <point x="415" y="0" type="move" name="caret_1"/>
    </contour>
    <contour>
      <point x="588" y="-115" type="move" name="bottom_1"/>
    </contour>
    <contour>
      <point x="599" y="314" type="move" name="top_1"/>
    </contour>
    <contour>
      <point x="295" y="25" type="move" name="top_2"/>
    </contour>
    <contour>
      <point x="296" y="-230" type="move" name="bottom_2"/>
    </contour>
  </outline>
</glyph>
<glyph name="uni0678.medi" format="1">
  <advance width="560"/>
  <outline>
    <contour>
      <point x="124" y="212" type="line"/>
      <point x="123" y="194"/>
      <point x="112" y="125"/>
      <point x="40" y="125" type="curve" smooth="yes"/>
      <point x="-13" y="125" type="line" smooth="yes"/>
      <point x="-38" y="125"/>
      <point x="-76" y="106"/>
      <point x="-76" y="64" type="curve" smooth="yes"/>
      <point x="-76" y="28"/>
      <point x="-48" y="0"/>
      <point x="-13" y="0" type="curve" smooth="yes"/>
      <point x="52" y="0" type="line" smooth="yes"/>
      <point x="84" y="0"/>
      <point x="109" y="11"/>
      <point x="127" y="26" type="curve" smooth="yes"/>
      <point x="144" y="40"/>
      <point x="151" y="55"/>
      <point x="153" y="59" type="curve"/>
      <point x="154" y="55"/>
      <point x="159" y="41"/>
      <point x="176" y="26" type="curve" smooth="yes"/>
      <point x="192" y="12"/>
      <point x="217" y="0"/>
      <point x="258" y="0" type="curve" smooth="yes"/>
      <point x="560" y="0" type="line"/>
      <point x="560" y="125" type="line"/>
      <point x="244" y="125" type="line" smooth="yes"/>
      <point x="213" y="125"/>
      <point x="192" y="133"/>
      <point x="178" y="148" type="curve" smooth="yes"/>
      <point x="158" y="171"/>
      <point x="165" y="219"/>
      <point x="166" y="229" type="curve"/>
    </contour>
    <component base="uni0654" xOffset="295" yOffset="-446"/>
    <contour>
      <point x="302" y="446" type="move" name="top"/>
    </contour>
    <contour>
      <point x="67" y="-28" type="move" name="bottom"/>
    </contour>
  </outline>
</glyph>
<glyph name="uni06CD.fina" format="1">
  <advance width="729"/>
  <outline>
    <contour>
      <point x="65" y="47"/>
      <point x="28" y="28"/>
      <point x="-18" y="16" type="curve"/>
      <point x="22" y="-37" type="line"/>
      <point x="108" y="2" type="line"/>
      <point x="99" y="67" type="line"/>
    </contour>
    <component base="uniFEF0"/>
  </outline>
</glyph>
<glyph name="uni075A.fina" format="1">
  <advance width="537"/>
  <outline>
    <component base="uniFEAA"/>
    <component base="circumflex.below" xOffset="191" yOffset="153"/>
    <contour>
      <point x="209" y="-266" type="move" name="bottom"/>
    </contour>
  </outline>
</glyph>
<glyph name="uni08AA.fina" format="1">
  <advance width="531"/>
  <outline>
    <contour>
      <point x="439" y="125" type="line" smooth="yes"/>
      <point x="416" y="125"/>
      <point x="388" y="131"/>
      <point x="368" y="149" type="curve" smooth="yes"/>
      <point x="355" y="162"/>
      <point x="346" y="173"/>
      <point x="326" y="194" type="curve"/>
      <point x="310" y="177"/>
      <point x="279" y="134"/>
      <point x="261" y="99" type="curve"/>
      <point x="266" y="94"/>
      <point x="285" y="78"/>
      <point x="306" y="51" type="curve" smooth="yes"/>
      <point x="322" y="29"/>
      <point x="337" y="3"/>
      <point x="337" y="-29" type="curve" smooth="yes"/>
      <point x="337" y="-73"/>
      <point x="310" y="-107"/>
      <point x="267" y="-136" type="curve"/>
      <point x="257" y="-109"/>
      <point x="220" y="-48"/>
      <point x="145" y="-48" type="curve" smooth="yes"/>
      <point x="80" y="-48"/>
      <point x="37" y="-103"/>
      <point x="37" y="-158" type="curve" smooth="yes"/>
      <point x="37" y="-199"/>
      <point x="52" y="-230"/>
      <point x="76" y="-251" type="curve" smooth="yes"/>
      <point x="103" y="-275"/>
      <point x="141" y="-287"/>
      <point x="178" y="-287" type="curve"/>
      <point x="203" y="-288"/>
      <point x="228" y="-283"/>
      <point x="249" y="-273" type="curve"/>
      <point x="252" y="-290"/>
      <point x="256" y="-304"/>
      <point x="259" y="-329" type="curve"/>
      <point x="310" y="-284" type="line"/>
      <point x="307" y="-273"/>
      <point x="305" y="-260"/>
      <point x="302" y="-249" type="curve"/>
      <point x="322" y="-233"/>
      <point x="356" y="-206"/>
      <point x="376" y="-149" type="curve" smooth="yes"/>
      <point x="393" y="-113"/>
      <point x="398" y="-71"/>
      <point x="400" y="-42" type="curve" smooth="yes"/>
      <point x="402" y="-22"/>
      <point x="403" y="-4"/>
      <point x="402" y="9" type="curve"/>
      <point x="412" y="6"/>
      <point x="430" y="0"/>
      <point x="452" y="0" type="curve" smooth="yes"/>
      <point x="532" y="0" type="line"/>
      <point x="532" y="125" type="line"/>
    </contour>
    <contour>
      <point x="205" y="-175"/>
      <point x="179" y="-185"/>
      <point x="162" y="-186" type="curve"/>
      <point x="102" y="-197"/>
      <point x="81" y="-171"/>
      <point x="84" y="-145" type="curve" smooth="yes"/>
      <point x="87" y="-127"/>
      <point x="107" y="-113"/>
      <point x="130" y="-113" type="curve" smooth="yes"/>
      <point x="162" y="-113"/>
      <point x="191" y="-131"/>
      <point x="212" y="-169" type="curve"/>
    </contour>
    <contour>
      <point x="262" y="232" type="move" name="top"/>
    </contour>
    <contour>
      <point x="177" y="-337" type="move" name="bottom"/>
    </contour>
  </outline>
</glyph>
<glyph name="uniFB95.001" format="1">
  <advance width="730"/>
  <outline>
    <contour>
      <point x="623" y="125" type="line"/>
      <point x="620" y="164"/>
      <point x="611" y="198"/>
      <point x="586" y="233" type="curve" smooth="yes"/>
      <point x="549" y="281"/>
      <point x="489" y="306"/>
      <point x="407" y="306" type="curve" smooth="yes"/>
      <point x="348" y="305"/>
      <point x="252" y="303"/>
      <point x="195" y="301" type="curve" smooth="yes"/>
      <point x="171" y="301"/>
      <point x="152" y="303"/>
      <point x="136" y="308" type="curve"/>
      <point x="105" y="314"/>
      <point x="92" y="327"/>
      <point x="90" y="336" type="curve"/>
      <point x="130" y="372"/>
      <point x="183" y="398"/>
      <point x="245" y="417" type="curve"/>
      <point x="255" y="455"/>
      <point x="262" y="488"/>
      <point x="266" y="531" type="curve"/>
      <point x="179" y="501"/>
      <point x="124" y="467"/>
      <point x="77" y="415" type="curve" smooth="yes"/>
      <point x="43" y="375"/>
      <point x="23" y="331"/>
      <point x="23" y="295" type="curve" smooth="yes"/>
      <point x="23" y="273"/>
      <point x="31" y="254"/>
      <point x="47" y="239" type="curve" smooth="yes"/>
      <point x="64" y="222"/>
      <point x="91" y="210"/>
      <point x="126" y="204" type="curve" smooth="yes"/>
      <point x="148" y="199"/>
      <point x="170" y="198"/>
      <point x="181" y="198" type="curve" smooth="yes"/>
      <point x="264" y="198"/>
      <point x="398" y="204"/>
      <point x="437" y="204" type="curve" smooth="yes"/>
      <point x="471" y="204"/>
      <point x="499" y="192"/>
      <point x="520" y="178" type="curve" smooth="yes"/>
      <point x="541" y="164"/>
      <point x="554" y="145"/>
      <point x="560" y="131" type="curve"/>
      <point x="537" y="131"/>
      <point x="491" y="129"/>
      <point x="458" y="128" type="curve" smooth="yes"/>
      <point x="422" y="126"/>
      <point x="383" y="127"/>
      <point x="346" y="126" type="curve" smooth="yes"/>
      <point x="289" y="125"/>
      <point x="246" y="125"/>
      <point x="78" y="126" type="curve" smooth="yes"/>
      <point x="-13" y="125" type="line" smooth="yes"/>
      <point x="-38" y="125"/>
      <point x="-76" y="106"/>
      <point x="-76" y="64" type="curve" smooth="yes"/>
      <point x="-76" y="28"/>
      <point x="-48" y="0"/>
      <point x="-13" y="0" type="curve" smooth="yes"/>
      <point x="121" y="0" type="line" smooth="yes"/>
      <point x="257" y="0"/>
      <point x="339" y="-2"/>
      <point x="501" y="5" type="curve" smooth="yes"/>
      <point x="534" y="7"/>
      <point x="562" y="19"/>
      <point x="585" y="43" type="curve"/>
      <point x="590" y="36"/>
      <point x="595" y="29"/>
      <point x="600" y="25" type="curve" smooth="yes"/>
      <point x="620" y="7"/>
      <point x="648" y="0"/>
      <point x="674" y="0" type="curve" smooth="yes"/>
      <point x="730" y="0" type="line"/>
      <point x="730" y="125" type="line"/>
    </contour>
    <contour>
      <point x="266" y="579"/>
      <point x="269" y="596"/>
      <point x="270" y="614" type="curve"/>
      <point x="203" y="594"/>
      <point x="153" y="568"/>
      <point x="116" y="538" type="curve" smooth="yes"/>
      <point x="70" y="501"/>
      <point x="48" y="460"/>
      <point x="41" y="430" type="curve"/>
      <point x="51" y="421" type="line"/>
      <point x="69" y="447"/>
      <point x="94" y="476"/>
      <point x="136" y="505" type="curve" smooth="yes"/>
      <point x="170" y="526"/>
      <point x="210" y="546"/>
      <point x="259" y="562" type="curve"/>
    </contour>
    <contour>
      <point x="95" y="550" type="move" name="top"/>
    </contour>
    <contour>
      <point x="255" y="-29" type="move" name="bottom"/>
    </contour>
  </outline>
</glyph>
